<svg xmlns="http://www.w3.org/2000/svg" viewBox="0 0 24 24"><path d="m12 2.2c-4.8 0-9.8 1.3-9.8 3.7v12c0 2.4 5 3.6 9.8 3.6s9.8-1.2 9.8-3.6v-12c0-2.4-5-3.7-9.8-3.7zm0 1.6c5.1 0 8.2 1.3 8.2 2.1s-3.1 2.1-8.2 2.1-8.2-1.4-8.2-2.1 3.1-2.1 8.2-2.1zm8.2 14.1c0 0.7-3.1 2.1-8.2 2.1s-8.2-1.4-8.2-2.1v-2h0.1s0.3309623 0.139597 0.5 0.2c0.6254315 0.223487 1.249796 0.464553 1.9 0.6 1.870346 0.389621 3.783531 0.613993 5.7 0.6 1.339069 0.0032 2.676381-0.09714 4-0.3v1h3v-1.5l1.2-0.4zm-8.2-1.9c-5.1 0-8.2-1.4-8.2-2.1v-2h0.1s0.3309623 0.139597 0.5 0.2c0.6254315 0.223487 1.249796 0.464553 1.9 0.6 1.870346 0.389621 3.783531 0.613993 5.7 0.6 1.339069 0.0032 2.676381-0.09714 4-0.3v1h3v-1.5l1.2-0.4v2c0 0.5-3.1 1.9-8.2 1.9zm0-4c-5.1 0-8.2-1.4-8.2-2.1v-2h0.1s0.3309623 0.1395973 0.5 0.2c0.6254315 0.2234873 1.249796 0.4645527 1.9 0.6 1.870346 0.3896214 3.783531 0.6139931 5.7 0.6 1.339069 0.00315 2.676381-0.097144 4-0.3v1h3v-1.5l1.2-0.4v2c0 0.5-3.1 1.9-8.2 1.9z"/><ellipse cx="12" cy="5.9" rx="2" ry=".6"/></svg>
