<svg xmlns="http://www.w3.org/2000/svg" viewBox="0 0 24 24">
  <title>color</title>
  <path d="M21.1,10.3,18,7.2l3.6-3.6L20.5,2.5,16.9,6.1l-3-3L12.5,1.7,11,3.1l-.5.5A21,21,0,0,1,7.5,6c-1,.6-3.1,1.1-3.9,1.6s.3,6-1.1,8.9-1,5.5,2,5.5S7.2,18.5,6,16.5a7.3,7.3,0,0,1-1-4.3l7,7.1a4.2,4.2,0,0,0,2.8,1.2,4.4,4.4,0,0,0,2.8-1.2l3.5-3.5A3.9,3.9,0,0,0,21.1,10.3Zm-1.5,4.1-3.5,3.5a1.9,1.9,0,0,1-2.6,0L6.3,10.7l6.2-6.2,3,3.1L14.4,8.7l-.9-.2a2,2,0,1,0,2,2c0-.2-.1-.5-.1-.7l1.1-1.2,3.1,3.1A1.8,1.8,0,0,1,19.6,14.4Zm-5.1-3.9a1,1,0,0,1-2,0,1,1,0,0,1,2,0Z" fill="#222221"/>
</svg>
