<svg xmlns="http://www.w3.org/2000/svg" viewBox="0 0 24 24">
<path d="M3.475 2.013H14.53a1.43 1.43 0 0 1 1.429 1.429v3.353h-1.304V3.441c0-.069-.056-.125-.125-.125H3.475c-.069 0-.125.056-.125.125v11.055c0 .069.056.125.125.125h3.249v1.304H3.475a1.43 1.43 0 0 1-1.429-1.429V3.441a1.43 1.43 0 0 1 1.429-1.429zm5.982 6.086h11.055a1.43 1.43 0 0 1 1.429 1.429v11.055a1.43 1.43 0 0 1-1.429 1.429H9.457a1.43 1.43 0 0 1-1.429-1.429V9.528a1.43 1.43 0 0 1 1.429-1.429zm0 12.608h11.055c.069 0 .125-.056.125-.125V9.528c0-.069-.056-.125-.125-.125H9.457c-.069 0-.125.056-.125.125v11.055h0c0 .069.056.125.125.125z"/>
</svg>