<svg xmlns="http://www.w3.org/2000/svg" viewBox="0 0 24 24"><path d="M17.5 11l-1.1-1 1-1A1 1 0 0 0 16 7.6l-1 1-1-1.1a1.4 1.4 0 0 0-1.5 0 1.4 1.4 0 0 0 0 1.5l1.1 1-1 1a1 1 0 0 0 0 1.4.8.8 0 0 0 .7.3 1.1 1.1 0 0 0 .7-.3l1-1 1 1.1a1.1 1.1 0 0 0 .8.3 1.1 1.1 0 0 0 .7-.3 1.4 1.4 0 0 0 0-1.5zM8 12.5l1-1.1 1 1a1.1 1.1 0 0 0 .7.3.8.8 0 0 0 .7-.3 1 1 0 0 0 0-1.4l-1-1 1.1-1a1.4 1.4 0 0 0 0-1.5 1.4 1.4 0 0 0-1.5 0L9 8.6l-1-1A1 1 0 0 0 6.6 9l1 1-1.1 1a1.4 1.4 0 0 0 0 1.5 1.1 1.1 0 0 0 .7.3 1.1 1.1 0 0 0 .8-.3zm8.4 1.5H7.6a1 1 0 0 0 0 2H13v.4a1.5 1.5 0 1 0 3 0V16h.4a1 1 0 0 0 0-2zM14 16.4zM12 2a10 10 0 1 0 10 10A10 10 0 0 0 12 2zm0 18a8 8 0 1 1 8-8 8 8 0 0 1-8 8z" fill="#222221"/></svg>