<?xml version="1.0" encoding="utf-8"?>
<!-- Generator: Adobe Illustrator 25.0.1, SVG Export Plug-In . SVG Version: 6.00 Build 0)  -->
<svg version="1.1" id="Layer_1" xmlns="http://www.w3.org/2000/svg" xmlns:xlink="http://www.w3.org/1999/xlink" x="0px" y="0px"
	 viewBox="0 0 16 16" style="enable-background:new 0 0 16 16;" xml:space="preserve">
<path d="M8,14.8c-0.2,0-0.4-0.1-0.5-0.2l-6-6c-0.3-0.3-0.3-0.8,0-1.1l6-6c0.3-0.3,0.8-0.3,1.1,0s0.3,0.8,0,1.1L3.1,8l5.5,5.5
	c0.3,0.3,0.3,0.8,0,1.1C8.4,14.7,8.2,14.8,8,14.8z"/>
<path d="M14,14.8c-0.2,0-0.4-0.1-0.5-0.2l-6-6c-0.3-0.3-0.3-0.8,0-1.1l6-6c0.3-0.3,0.8-0.3,1.1,0s0.3,0.8,0,1.1L9.1,8l5.5,5.5
	c0.3,0.3,0.3,0.8,0,1.1C14.4,14.7,14.2,14.8,14,14.8z"/>
</svg>
