<svg xmlns="http://www.w3.org/2000/svg" viewBox="0 0 24 24">
  <g>
    <g>
      <path d="M4,8h7V7.5A5.4,5.4,0,0,1,11.6,5H10V4.8a1,1,0,0,0-.6-.9L8,3.2,7.3,3H4A2,2,0,0,0,2,5V9.4h.1A2,2,0,0,1,4,8Z" fill="#222221" opacity="0.5"/>
      <path d="M21.7,9.4h.2V9.1A.4.4,0,0,0,21.7,9.4Z" fill="#222221"/>
    </g>
    <g>
      <path d="M21.8,9.1v.3h-.2a5.6,5.6,0,0,1-10.4,0L11,8H4A2,2,0,0,0,2.1,9.4,1.3,1.3,0,0,0,2,10v9a2,2,0,0,0,2,2H20a2,2,0,0,0,2-2V10h0V7.5A8.8,8.8,0,0,1,21.8,9.1Z" fill="#222221"/>
      <path d="M13.5,8.5h2v2a1,1,0,0,0,2,0v-2h2a.9.9,0,0,0,1-1,.9.9,0,0,0-1-1h-2v-2a1,1,0,0,0-2,0v2h-2a.9.9,0,0,0-1,1A.9.9,0,0,0,13.5,8.5Z" fill="#222221"/>
    </g>
  </g>
</svg>
