<svg xmlns="http://www.w3.org/2000/svg" viewBox="0 0 16 16"><path d="m12.8 14h-9.6c-1 0-1.8-0.8-1.8-1.8v-5c0-1 0.8-1.8 1.8-1.8h9.5c1 0 1.8 0.8 1.8 1.8v5c0 1-0.8 1.8-1.7 1.8z"/><path d="M12.8,14H3.2c-1,0-1.8-0.8-1.8-1.8V3.8c0-1,0.8-1.8,1.8-1.8h2.3C6,2,6.4,2.2,6.6,2.4l0.4,0.4C7.2,2.9,7.3,3,7.4,3h5.3  c1,0,1.8,0.8,1.8,1.8v7.5C14.5,13.2,13.7,14,12.8,14z M3.2,3C2.8,3,2.5,3.3,2.5,3.8v8.5c0,0.4,0.3,0.8,0.8,0.8h9.5  c0.4,0,0.8-0.3,0.8-0.8V4.8c0-0.4-0.3-0.8-0.8-0.8H7.4C7,4,6.6,3.8,6.4,3.6L5.9,3.1C5.8,3.1,5.7,3,5.6,3H3.2z"/></svg>
