<svg xmlns="http://www.w3.org/2000/svg" viewBox="0 0 24 24"><path d="M4,8h7V7.5A5.4,5.4,0,0,1,11.6,5H10V4.8a1,1,0,0,0-.6-.9L8,3.2,7.3,3H4A2,2,0,0,0,2,5V9.4h.1A2,2,0,0,1,4,8Z" opacity=".5"/><path d="m22 7.5c0 0.546165-0.111708 1.015322-0.246094 1.505859-0.03731 0.1361917-0.154297 0.3945312-0.154297 0.3945312-1.876513 4.696035-8.523877 4.696035-10.40039 0l-0.199219-1.400391h-7c-0.8707757 0.0033156-1.639332 0.569662-1.900391 1.400391-0.0801186 0.1891904-0.1142547 0.3946765-0.0996094 0.5996094v9c0 1.104569 0.8954305 2 2 2h16c1.104569 0 2-0.895431 2-2v-9z"/><path d="M13.5,8.5h2v2a1,1,0,0,0,2,0v-2h2a.9.9,0,0,0,1-1,.9.9,0,0,0-1-1h-2v-2a1,1,0,0,0-2,0v2h-2a.9.9,0,0,0-1,1A.9.9,0,0,0,13.5,8.5Z"/></svg>
