<svg xmlns="http://www.w3.org/2000/svg" viewBox="0 0 24 24"><g fill="#222221"><rect x="2" y="17" width="8" height="5" rx="1" ry="1"/><rect x="14" y="17" width="8" height="5" rx="1" ry="1"/><path d="M9.1 14.6l.8.8 1.6-1.6 1.6 1.6.8-.8-2.4-2.4-2.4 2.4z"/><rect x="6" y="5" width="12" height="7" rx="1.9" ry="1.9"/><path d="M9 16H5l-1.1-1H3a.9.9 0 0 0-1 1v2h8v-1a.9.9 0 0 0-1-1zm12 0h-4l-1.1-1H15a.9.9 0 0 0-1 1v2h8v-1a.9.9 0 0 0-1-1zM18 4.2A1.2 1.2 0 0 0 16.8 3h-6.5a.7.7 0 0 0-.4-.6l-.7-.3H6.6a.6.6 0 0 0-.6.6v2.8h12z" opacity=".5"/></g></svg>