<svg xmlns="http://www.w3.org/2000/svg" viewBox="0 0 24 24"><path d="M4,8h7V7.5A5.4,5.4,0,0,1,11.6,5H10V4.8a1,1,0,0,0-.6-.9L8,3.2,7.3,3H4A2,2,0,0,0,2,5V9.4h.1A2,2,0,0,1,4,8Z" opacity=".5"/><path d="m22 7.5c-0.01733 0.5381751-0.08499 0.9497212-0.207032 1.408203-0.04534 0.1703375-0.138316 0.4098899-0.193359 0.4921874-1.876513 4.696035-8.523877 4.696035-10.40039 0l-0.199219-1.400391h-7c-0.8707757 0.0033156-1.639332 0.569662-1.900391 1.400391-0.0801186 0.1891904-0.1142547 0.3946765-0.0996094 0.5996094v9c0 1.104569 0.8954305 2 2 2h16c1.104569 0 2-0.895431 2-2v-9z"/><path d="M15.8,11.2l.3.2h.8l.3-.2,2.5-2.5a1,1,0,0,0-1.4-1.4l-.8.8V4.5h1a.9.9,0,0,0,1-1,.9.9,0,0,0-1-1h-4a.9.9,0,0,0-1,1,.9.9,0,0,0,1,1h1V8.1l-.8-.8a1,1,0,0,0-1.4,1.4Z"/></svg>
