<svg xmlns="http://www.w3.org/2000/svg" viewBox="0 0 24 24"><path d="M12 2a10.2 10.2 0 0 0-3.2 20c.5.1.7-.2.7-.5a15.3 15.3 0 0 0-.1-1.8c-2.8.7-3.4-1.3-3.4-1.3a2.9 2.9 0 0 0-1.1-1.5c-1-.7 0-.7 0-.7a2.1 2.1 0 0 1 1.6 1.1 2.2 2.2 0 0 0 3 .9 2 2 0 0 1 .6-1.4c-2.2-.3-4.6-1.2-4.6-5.1a4.1 4.1 0 0 1 1-2.7 4.1 4.1 0 0 1 .1-2.7s.9-.3 2.8 1a11.4 11.4 0 0 1 5.2 0c1.9-1.3 2.8-1 2.8-1a4.1 4.1 0 0 1 .1 2.7 4.1 4.1 0 0 1 1 2.7c0 4-2.4 4.8-4.6 5.1a2.6 2.6 0 0 1 .7 1.9c0 1.3-.1 2.5-.1 2.8s.2.6.7.5A10.2 10.2 0 0 0 12 2z" fill="#181616" fill-rule="evenodd"/></svg>