<svg xmlns="http://www.w3.org/2000/svg" viewBox="0 0 24 24">
  <title>helpcenter</title>
  <path d="M5,2A2.9,2.9,0,0,0,2,5V19a2.9,2.9,0,0,0,3,3H22V2ZM8.5,7A3.4,3.4,0,0,1,9.9,4.2a3.9,3.9,0,0,1,2-.5,3.9,3.9,0,0,1,2.5.7,2.7,2.7,0,0,1,1.1,2.2A3,3,0,0,1,15,8.2l-1,.9-.4.3a1.2,1.2,0,0,0-.5.7,5.6,5.6,0,0,0-.1.7H11a5.7,5.7,0,0,1,.2-1.6,2.6,2.6,0,0,1,.9-1l.5-.4.4-.3a2.4,2.4,0,0,0,.2-.8,1.3,1.3,0,0,0-.3-.8,1.1,1.1,0,0,0-.9-.4A1.1,1.1,0,0,0,11,6a1.7,1.7,0,0,0-.3,1H8.5Zm4.7,4.6v2.2H10.9V11.6ZM20,20H6a2,2,0,0,1,0-4H20Z" fill="#222221"/>
</svg>
