<svg xmlns="http://www.w3.org/2000/svg" viewBox="0 0 24 24">
<path d="M10.963,14.805C11.287,14.925,11.634,15,12,15c1.657,0,3-1.343,3-3c0-0.366-0.075-0.713-0.195-1.037L10.963,14.805z"/>
<path d="M19.867,2.896c-0.342-0.342-0.896-0.342-1.237,0l-2.337,2.337C14.982,4.495,13.537,4,12,4C7.279,4,3.384,8.615,1.784,10.835
	c-0.502,0.696-0.5,1.633,0.004,2.327c0.667,0.919,1.734,2.248,3.085,3.491l-1.976,1.976c-0.342,0.342-0.342,0.896,0,1.237
	c0.342,0.342,0.896,0.342,1.237,0l2.086-2.086l2.245-2.245l1.414-1.414l4.243-4.243l1.414-1.414L17.79,6.21l2.076-2.076
	C20.208,3.792,20.208,3.238,19.867,2.896z M12.477,9.048C12.321,9.023,12.163,9,12,9c-1.657,0-3,1.343-3,3
	c0,0.163,0.023,0.321,0.048,0.477l-1.59,1.59C7.17,13.435,7,12.739,7,12c0-2.761,2.239-5,5-5c0.739,0,1.435,0.17,2.067,0.458
	L12.477,9.048z"/>
<path d="M22.216,10.835c-0.724-1.004-1.922-2.498-3.45-3.833l-2.474,2.474C16.731,10.218,17,11.074,17,12c0,2.761-2.239,5-5,5
	c-0.926,0-1.782-0.269-2.525-0.707L7.268,18.5C8.695,19.385,10.295,20,12,20c4.686,0,8.602-4.62,10.213-6.838
	C22.717,12.467,22.719,11.531,22.216,10.835z"/>
</svg>
