<svg xmlns="http://www.w3.org/2000/svg" viewBox="0 0 24 24"><path d="m12 4.380859c-6.1 0-11 7.900391-11 7.900391s2.110574 3.382083 5.275391 5.720703l2.050781-2.050781a5.2 5.2 0 0 1 3.673828-8.869141 5.2 5.2 0 0 1 3.673828 1.521484l2.046875-2.046875c-1.665772-1.229884-3.618413-2.175781-5.720703-2.175781zm7.546875 3.724609-2.595703 2.595703a5.2 5.2 0 0 1 0.248047 1.580078 5.2 5.2 0 0 1-6.777344 4.949219l-2.048828 2.048828c1.135735 0.545374 2.352783 0.902344 3.626953 0.902344 6.1 0 11-7.900391 11-7.900391s-1.329019-2.127872-3.453125-4.175781zm-7.546875 0.875a3.3 3.3 0 0 0-3.300781 3.300781 3.3 3.3 0 0 0 0.9667968 2.330078l4.664062-4.664062a3.3 3.3 0 0 0-2.330078-0.9667968zm3.298828 3.373047-3.224609 3.224609a3.3 3.3 0 0 0 3.224609-3.224609z"/><rect transform="rotate(-45)" x="-12.52351" y="14.78129" width="24.06373" height="2.386485"/><path d="m12 4.380859c-6.1 0-11 7.900391-11 7.900391s2.110574 3.382083 5.275391 5.720703l2.050781-2.050781a5.2 5.2 0 0 1 3.673828-8.869141 5.2 5.2 0 0 1 3.673828 1.521484l2.046875-2.046875c-1.665772-1.229884-3.618413-2.175781-5.720703-2.175781zm7.546875 3.724609-2.595703 2.595703a5.2 5.2 0 0 1 0.248047 1.580078 5.2 5.2 0 0 1-6.777344 4.949219l-2.048828 2.048828c1.135735 0.545374 2.352783 0.902344 3.626953 0.902344 6.1 0 11-7.900391 11-7.900391s-1.329019-2.127872-3.453125-4.175781zm-7.546875 0.875a3.3 3.3 0 0 0-3.300781 3.300781 3.3 3.3 0 0 0 0.9667968 2.330078l4.664062-4.664062a3.3 3.3 0 0 0-2.330078-0.9667968zm3.298828 3.373047-3.224609 3.224609a3.3 3.3 0 0 0 3.224609-3.224609z"/></svg>
