<?xml version="1.0" encoding="utf-8"?>
<!-- Generator: Adobe Illustrator 25.4.1, SVG Export Plug-In . SVG Version: 6.00 Build 0)  -->
<svg version="1.1" id="Layer_1" xmlns="http://www.w3.org/2000/svg" xmlns:xlink="http://www.w3.org/1999/xlink" x="0px" y="0px"
	 viewBox="0 0 24 24" style="enable-background:new 0 0 24 24;" xml:space="preserve">
<path d="M19.9,2.9c-0.3-0.3-0.9-0.3-1.2,0l-2.3,2.3C15,4.5,13.5,4,12,4C7.3,4,3.4,8.6,1.8,10.8c-0.5,0.7-0.5,1.6,0,2.3
	c0.7,0.9,1.7,2.2,3.1,3.5l-2,2c-0.3,0.3-0.3,0.9,0,1.2c0.3,0.3,0.9,0.3,1.2,0l2.1-2.1l2.2-2.2l1.4-1.4l4.2-4.2l1.4-1.4l2.3-2.3
	l2.1-2.1C20.2,3.8,20.2,3.2,19.9,2.9z M12.5,9c-0.2,0-0.3,0-0.5,0c-1.7,0-3,1.3-3,3c0,0.2,0,0.3,0,0.5l-1.6,1.6
	C7.2,13.4,7,12.7,7,12c0-2.8,2.2-5,5-5c0.7,0,1.4,0.2,2.1,0.5L12.5,9z"/>
<path d="M22.2,10.8c-0.7-1-1.9-2.5-3.4-3.8l-2.5,2.5c0.4,0.7,0.7,1.6,0.7,2.5c0,2.8-2.2,5-5,5c-0.9,0-1.8-0.3-2.5-0.7l-2.2,2.2
	c1.4,0.9,3,1.5,4.7,1.5c4.7,0,8.6-4.6,10.2-6.8C22.7,12.5,22.7,11.5,22.2,10.8z"/>
<path d="M11,14.8c0.3,0.1,0.7,0.2,1,0.2c1.7,0,3-1.3,3-3c0-0.4-0.1-0.7-0.2-1L11,14.8z"/>
</svg>
