<svg xmlns="http://www.w3.org/2000/svg" viewBox="0 0 24 24">
   <path id="path5108" d="M 12 4.3808594 C 5.9 4.3808594 1 12.28125 1 12.28125 C 1 12.28125 3.1105735 15.663333 6.2753906 18.001953 L 8.3261719 15.951172 A 5.2 5.2 0 0 1 12 7.0820312 A 5.2 5.2 0 0 1 15.673828 8.6035156 L 17.720703 6.5566406 C 16.054931 5.3267566 14.10229 4.3808594 12 4.3808594 z M 19.546875 8.1054688 L 16.951172 10.701172 A 5.2 5.2 0 0 1 17.199219 12.28125 A 5.2 5.2 0 0 1 10.421875 17.230469 L 8.3730469 19.279297 C 9.5087819 19.824671 10.72583 20.181641 12 20.181641 C 18.1 20.181641 23 12.28125 23 12.28125 C 23 12.28125 21.670981 10.153378 19.546875 8.1054688 z M 12 8.9804688 A 3.3 3.3 0 0 0 8.6992188 12.28125 A 3.3 3.3 0 0 0 9.6660156 14.611328 L 14.330078 9.9472656 A 3.3 3.3 0 0 0 12 8.9804688 z M 15.298828 12.353516 L 12.074219 15.578125 A 3.3 3.3 0 0 0 15.298828 12.353516 z " style="fill:#222221;fill-rule:evenodd" />
   <rect transform="rotate(-45)" y="14.781286" x="-12.523509" height="2.3864853" width="24.063728" id="rect5244" style="opacity:1;fill:#222221;fill-opacity:1;stroke:none;stroke-width:1.22474492;stroke-miterlimit:4;stroke-dasharray:none;stroke-opacity:1" />
   <path style="fill:#222221;fill-rule:evenodd" d="M 12 4.3808594 C 5.9 4.3808594 1 12.28125 1 12.28125 C 1 12.28125 3.1105735 15.663333 6.2753906 18.001953 L 8.3261719 15.951172 A 5.2 5.2 0 0 1 12 7.0820312 A 5.2 5.2 0 0 1 15.673828 8.6035156 L 17.720703 6.5566406 C 16.054931 5.3267566 14.10229 4.3808594 12 4.3808594 z M 19.546875 8.1054688 L 16.951172 10.701172 A 5.2 5.2 0 0 1 17.199219 12.28125 A 5.2 5.2 0 0 1 10.421875 17.230469 L 8.3730469 19.279297 C 9.5087819 19.824671 10.72583 20.181641 12 20.181641 C 18.1 20.181641 23 12.28125 23 12.28125 C 23 12.28125 21.670981 10.153378 19.546875 8.1054688 z M 12 8.9804688 A 3.3 3.3 0 0 0 8.6992188 12.28125 A 3.3 3.3 0 0 0 9.6660156 14.611328 L 14.330078 9.9472656 A 3.3 3.3 0 0 0 12 8.9804688 z M 15.298828 12.353516 L 12.074219 15.578125 A 3.3 3.3 0 0 0 15.298828 12.353516 z " id="path5302" />
</svg>