<svg xmlns="http://www.w3.org/2000/svg" viewBox="0 0 16 16"><path d="M12,3.75a.25.25,0,0,1,.25.25v8a.25.25,0,0,1-.25.25H4A.25.25,0,0,1,3.75,12V4A.25.25,0,0,1,4,3.75h8M12,2.5H4A1.5,1.5,0,0,0,2.5,4v8A1.5,1.5,0,0,0,4,13.5h8A1.5,1.5,0,0,0,13.5,12V4A1.5,1.5,0,0,0,12,2.5Z"/><path d="M3.6464,10.3536l2.5-2.5a.5.5,0,0,1,.7072,0L8.1464,9.1464a.5.5,0,0,0,.7072,0l.5428-.5428a.5.5,0,0,1,.7072,0l2.25,2.25a.5.5,0,0,1,.1464.3535V12.5a.5.5,0,0,1-.5.5H4a.5.5,0,0,1-.5-.5V10.7071A.5.5,0,0,1,3.6464,10.3536Z"/><circle cx="8.75" cy="6.25" r="1.25"/></svg>