<?xml version="1.0" encoding="utf-8"?>
<!-- Generator: Adobe Illustrator 25.0.1, SVG Export Plug-In . SVG Version: 6.00 Build 0)  -->
<svg version="1.1" id="Layer_1" xmlns="http://www.w3.org/2000/svg" xmlns:xlink="http://www.w3.org/1999/xlink" x="0px" y="0px"
	 viewBox="0 0 16 16" style="enable-background:new 0 0 16 16;" xml:space="preserve">
<path d="M15,8.9H1C0.5,8.9,0.1,8.5,0.1,8S0.5,7.1,1,7.1h14c0.5,0,0.9,0.4,0.9,0.9S15.5,8.9,15,8.9z"/>
<path d="M15,3.9H1C0.5,3.9,0.1,3.5,0.1,3S0.5,2.1,1,2.1h14c0.5,0,0.9,0.4,0.9,0.9S15.5,3.9,15,3.9z"/>
<path d="M15,13.9H1c-0.5,0-0.9-0.4-0.9-0.9s0.4-0.9,0.9-0.9h14c0.5,0,0.9,0.4,0.9,0.9S15.5,13.9,15,13.9z"/>
</svg>
