<svg id="More" xmlns="http://www.w3.org/2000/svg" viewBox="0 0 16 16"><path d="M8,4.25a1.2171,1.2171,0,0,1-.88-.37A1.2023,1.2023,0,0,1,6.75,3a1.2167,1.2167,0,0,1,.37-.88A1.2622,1.2622,0,0,1,8.24,1.77a1.1592,1.1592,0,0,1,.24.08,1.4188,1.4188,0,0,1,.21.11.992.992,0,0,1,.19.16A1.2152,1.2152,0,0,1,9.25,3a1.2856,1.2856,0,0,1-.09.4795,1.2628,1.2628,0,0,1-.28.4A1.2168,1.2168,0,0,1,8,4.25Z"/><path d="M8,14.25a1.2882,1.2882,0,0,1-.48-.09,1.4027,1.4027,0,0,1-.68-.6807A1.2757,1.2757,0,0,1,6.75,13a1.2167,1.2167,0,0,1,.37-.88.98.98,0,0,1,.1905-.16,1.3707,1.3707,0,0,1,.21-.11,1.1454,1.1454,0,0,1,.24-.08,1.2622,1.2622,0,0,1,1.12.3506,1.2152,1.2152,0,0,1,.37.88,1.11,1.11,0,0,1-.1006.4795,1.0843,1.0843,0,0,1-.27.4,1.2607,1.2607,0,0,1-.4.28A1.292,1.292,0,0,1,8,14.25Z"/><path d="M8,9.25a1.2447,1.2447,0,0,1-.88-2.13A1.2332,1.2332,0,0,1,8.24,6.77a1.1592,1.1592,0,0,1,.24.08,1.4188,1.4188,0,0,1,.21.11.992.992,0,0,1,.19.16,1.231,1.231,0,0,1,0,1.76,1.2607,1.2607,0,0,1-.4.28A1.292,1.292,0,0,1,8,9.25Z"/></svg>