<svg xmlns="http://www.w3.org/2000/svg"  viewBox="0 0 24 24"><path d="m9.5 18h11a1.5 1.5 0 0 1 1.5 1.5 1.5 1.5 0 0 1-1.5 1.5h-11a1.5 1.5 0 0 1-1.5-1.5 1.5 1.5 0 0 1 1.5-1.5z"/><path d="m9.5 10.5h11a1.5 1.5 0 0 1 1.5 1.5 1.5 1.5 0 0 1-1.5 1.5h-11a1.5 1.5 0 0 1-1.5-1.5 1.5 1.5 0 0 1 1.5-1.5z"/><path d="m9.5 3h11a1.5 1.5 0 0 1 1.5 1.5 1.5 1.5 0 0 1-1.5 1.5h-11a1.5 1.5 0 0 1-1.5-1.5 1.5 1.5 0 0 1 1.5-1.5z"/><circle cx="3.5" cy="4.5" r="1.5"/><circle cx="3.5" cy="12" r="1.5"/><circle cx="3.5" cy="19.5" r="1.5"/></svg>
