<svg xmlns="http://www.w3.org/2000/svg" viewBox="0 0 24 24"><title>Volkswagen-outliner</title><path d="M3.5,17h17A1.5,1.5,0,0,1,22,18.5v1A1.5,1.5,0,0,1,20.5,21H3.5A1.5,1.5,0,0,1,2,19.5v-1A1.5,1.5,0,0,1,3.5,17Z" fill="#222221" fill-rule="evenodd"/><path d="M3.5,10h17A1.5,1.5,0,0,1,22,11.5v1A1.5,1.5,0,0,1,20.5,14H3.5A1.5,1.5,0,0,1,2,12.5v-1A1.5,1.5,0,0,1,3.5,10Z" fill="#222221" fill-rule="evenodd"/><path d="M3.5,3h17A1.5,1.5,0,0,1,22,4.5v1A1.5,1.5,0,0,1,20.5,7H3.5A1.5,1.5,0,0,1,2,5.5v-1A1.5,1.5,0,0,1,3.5,3Z" fill="#222221" fill-rule="evenodd"/></svg>