<svg xmlns="http://www.w3.org/2000/svg" viewBox="0 0 16 16">
<g>
	<path d="M8,15.25c-3.998,0-7.25-3.252-7.25-7.25c0-3.998,3.252-7.25,7.25-7.25c3.998,0,7.25,3.252,7.25,7.25
		C15.25,11.998,11.998,15.25,8,15.25z M6.663,10.807c-0.24,0.183-0.395,0.472-0.395,0.796V13c0,0.552,0.449,1,1,1h1.324
		c0.552,0,1-0.448,1-1v-1.397c0-0.345-0.176-0.649-0.441-0.829c0.201-0.184,0.328-0.447,0.328-0.741
		c0-0.119,0.035-0.254,0.107-0.412c0.035-0.078,0.167-0.305,0.631-0.75c0.668-0.641,1.091-1.111,1.332-1.479
		C11.849,6.927,12,6.355,12,5.688c0-1.05-0.384-1.969-1.111-2.658C10.17,2.347,9.224,2,8.077,2c-1.24,0-2.246,0.405-2.988,1.203
		C4.366,3.98,4,4.995,4,6.219c0,0.551,0.449,1,1,1h1.184c0.539,0,0.978-0.422,1-0.96c0.022-0.584,0.122-0.832,0.164-0.911
		c0.056-0.107,0.156-0.3,0.684-0.3c0.351,0,0.507,0.077,0.54,0.118c0.121,0.146,0.171,0.298,0.171,0.509
		c0,0.084-0.014,0.203-0.124,0.376c-0.06,0.098-0.137,0.189-0.235,0.281L7.829,6.874C7.199,7.487,6.793,8.045,6.588,8.578
		c-0.2,0.52-0.293,0.981-0.293,1.454C6.295,10.344,6.438,10.623,6.663,10.807z"/>
	<path d="M5.106,2.181C4.904,2.333,4.715,2.504,4.539,2.692C3.696,3.6,3.25,4.82,3.25,6.219c0,0.965,0.785,1.75,1.75,1.75h1.039
		c-0.057,0.114-0.108,0.227-0.151,0.34c-0.23,0.6-0.343,1.163-0.343,1.723c0,0.272,0.062,0.529,0.173,0.759
		c-0.128,0.243-0.2,0.519-0.2,0.812V13c0,0.453,0.173,0.866,0.456,1.177C3.379,13.323,1.5,10.877,1.5,8
		C1.5,5.455,2.97,3.247,5.106,2.181 M11.339,2.425C13.231,3.563,14.5,5.636,14.5,8c0,2.95-1.976,5.448-4.673,6.239
		c0.318-0.317,0.515-0.755,0.515-1.239v-1.397c0-0.327-0.09-0.633-0.247-0.895c0.086-0.205,0.133-0.43,0.133-0.665
		c0,0,0.005-0.035,0.035-0.101c0.004-0.007,0.093-0.167,0.473-0.531c0.72-0.691,1.164-1.187,1.444-1.615
		c0.378-0.584,0.57-1.293,0.57-2.108c0-1.261-0.465-2.369-1.344-3.201C11.384,2.466,11.362,2.446,11.339,2.425 M8,0
		C3.582,0,0,3.582,0,8s3.582,8,8,8s8-3.582,8-8S12.418,0,8,0L8,0z M5,6.469c-0.138,0-0.25-0.112-0.25-0.25
		c0-1.029,0.299-1.872,0.888-2.506C6.233,3.074,7.054,2.75,8.077,2.75c0.947,0,1.72,0.277,2.296,0.825
		c0.582,0.551,0.877,1.262,0.877,2.113c0,0.521-0.111,0.956-0.329,1.292c-0.207,0.316-0.607,0.757-1.224,1.348
		C9.288,8.721,9.021,9.051,8.903,9.31c-0.117,0.258-0.174,0.494-0.174,0.723c0,0.138-0.112,0.25-0.25,0.25H7.295
		c-0.138,0-0.25-0.112-0.25-0.25c0-0.377,0.077-0.754,0.243-1.185c0.166-0.43,0.514-0.9,1.065-1.437l0.543-0.53
		C9.043,6.743,9.162,6.6,9.253,6.452c0.161-0.255,0.239-0.508,0.239-0.777c0-0.383-0.111-0.705-0.341-0.984
		C8.938,4.43,8.561,4.298,8.031,4.298c-0.661,0-1.102,0.229-1.347,0.699c-0.146,0.275-0.229,0.689-0.25,1.231
		c-0.005,0.134-0.116,0.24-0.25,0.24H5L5,6.469z M7.268,13.25c-0.138,0-0.25-0.112-0.25-0.25v-1.397c0-0.138,0.112-0.25,0.25-0.25
		h1.324c0.138,0,0.25,0.112,0.25,0.25V13c0,0.138-0.112,0.25-0.25,0.25H7.268L7.268,13.25z"/>
</g>
</svg>
