<svg xmlns="http://www.w3.org/2000/svg" viewBox="0 0 16 16">
<path d="M11.9844,8.8047c-0.3828-0.1533-0.8213,0.0303-0.9766,0.4131C10.5078,10.4521,9.3271,11.25,8,11.25
	c-1.792,0-3.25-1.458-3.25-3.25S6.208,4.75,8,4.75c0.9028,0,1.7321,0.3754,2.3311,1h-1.628c-0.4141,0-0.75,0.3359-0.75,0.75
	s0.3359,0.75,0.75,0.75h3c0.4141,0,0.75-0.3359,0.75-0.75v-3c0-0.4141-0.3359-0.75-0.75-0.75s-0.75,0.3359-0.75,0.75v0.7944
	C10.1317,3.6371,9.1046,3.25,8,3.25C5.3809,3.25,3.25,5.3809,3.25,8S5.3809,12.75,8,12.75c1.9414,0,3.667-1.165,4.3984-2.9678
	C12.5537,9.3975,12.3691,8.9609,11.9844,8.8047z"/>
</svg>
