<svg xmlns="http://www.w3.org/2000/svg" viewBox="0 0 24 24">
   <title>search-all</title>
   <!-- 1px outline -->
   <!-- <path d="m12.006 6.2617a7 7 0 0 0-3.0059 5.7383 7 7 0 0 0 2.9941 5.7383 7 7 0 0 0 3.0059-5.7383 7 7 0 0 0-2.9941-5.7383z"/>
   <path d="m8 4.5c-4.1362 0-7.5 3.3638-7.5 7.5 0 4.1362 3.3638 7.5 7.5 7.5 4.1362 0 7.5-3.3638 7.5-7.5 0-4.1362-3.3638-7.5-7.5-7.5zm0 1c3.5958 0 6.5 2.9042 6.5 6.5 0 3.5958-2.9042 6.5-6.5 6.5-3.5958 0-6.5-2.9042-6.5-6.5 0-3.5958 2.9042-6.5 6.5-6.5z" />
   <path d="m16 4.5c-4.1362 0-7.5 3.3638-7.5 7.5 0 4.1362 3.3638 7.5 7.5 7.5s7.5-3.3638 7.5-7.5c0-4.1362-3.3638-7.5-7.5-7.5zm0 1c3.5958 0 6.5 2.9042 6.5 6.5 0 3.5958-2.9042 6.5-6.5 6.5s-6.5-2.9042-6.5-6.5c0-3.5958 2.9042-6.5 6.5-6.5z" /> -->

   <!-- 1.5px outline -->
   <path d="m12.006 6.2617a7 7 0 0 0-3.0059 5.7383 7 7 0 0 0 2.9941 5.7383 7 7 0 0 0 3.0059-5.7383 7 7 0 0 0-2.9941-5.7383z"/>
   <path d="m8 4.25c-4.2713 0-7.75 3.4787-7.75 7.75 0 4.2713 3.4787 7.75 7.75 7.75 4.2713 0 7.75-3.4787 7.75-7.75 0-4.2713-3.4787-7.75-7.75-7.75zm0 1.5c3.4607 0 6.25 2.7893 6.25 6.25 0 3.4607-2.7893 6.25-6.25 6.25-3.4607 0-6.25-2.7893-6.25-6.25 0-3.4607 2.7893-6.25 6.25-6.25z" />
   <path d="m16 4.25c-4.2713 0-7.75 3.4787-7.75 7.75 0 4.2713 3.4787 7.75 7.75 7.75s7.75-3.4787 7.75-7.75c0-4.2713-3.4787-7.75-7.75-7.75zm0 1.5c3.4607 0 6.25 2.7893 6.25 6.25 0 3.4607-2.7893 6.25-6.25 6.25s-6.25-2.7893-6.25-6.25c0-3.4607 2.7893-6.25 6.25-6.25z" />
</svg>
