<svg xmlns="http://www.w3.org/2000/svg" viewBox="0 0 24 24">
<path d="M19.518,19.784l-4.588-4.588c0.502-0.806,0.85-1.719,0.991-2.7c-0.975-0.013-1.893-0.258-2.703-0.682
	C13.055,14.012,11.24,15.75,9,15.75c-2.347,0-4.25-1.903-4.25-4.25S6.653,7.25,9,7.25c0.374,0,0.73,0.064,1.075,0.154
	C10.031,7.109,10,6.808,10,6.5c0-0.655,0.109-1.284,0.303-1.874C9.88,4.546,9.446,4.5,9,4.5c-3.866,0-7,3.134-7,7s3.134,7,7,7
	c1.328,0,2.568-0.371,3.625-1.013l4.595,4.595c0.293,0.293,0.768,0.293,1.061,0l1.237-1.237
	C19.811,20.552,19.811,20.077,19.518,19.784z"/>
<path d="M19.5,5.375h-2.375V3c0-0.276-0.224-0.5-0.5-0.5h-1.25c-0.276,0-0.5,0.224-0.5,0.5v2.375H12.5c-0.276,0-0.5,0.224-0.5,0.5
	v1.25c0,0.276,0.224,0.5,0.5,0.5h2.375V10c0,0.276,0.224,0.5,0.5,0.5h1.25c0.276,0,0.5-0.224,0.5-0.5V7.625H19.5
	c0.276,0,0.5-0.224,0.5-0.5v-1.25C20,5.599,19.776,5.375,19.5,5.375z"/>
</svg>
