<svg xmlns="http://www.w3.org/2000/svg" viewBox="0 0 24 24"><path d="M12.006,6.37413a6.85066,6.85066,0,0,0-.01157,11.251,6.85066,6.85066,0,0,0,.01157-11.251Z"/><path d="M8.07935,4.17181a7.82819,7.82819,0,1,0,7.82782,7.82782A7.83751,7.83751,0,0,0,8.07935,4.17181Zm0,13.72455a5.89673,5.89673,0,1,1,5.896-5.89673A5.90331,5.90331,0,0,1,8.07935,17.89636Z"/><path d="M15.92218,4.17181A7.82819,7.82819,0,1,0,23.75,11.99963,7.83751,7.83751,0,0,0,15.92218,4.17181Zm0,13.72455a5.89673,5.89673,0,1,1,5.896-5.89673A5.9033,5.9033,0,0,1,15.92218,17.89636Z"/></svg>