<svg xmlns="http://www.w3.org/2000/svg" viewBox="0 0 16 16"><path d="M11.5,14.125h-7A2.6281,2.6281,0,0,1,1.875,11.5v-7A2.6281,2.6281,0,0,1,4.5,1.875h7A2.6281,2.6281,0,0,1,14.125,4.5v7A2.6281,2.6281,0,0,1,11.5,14.125Zm-7-11A1.377,1.377,0,0,0,3.125,4.5v7A1.377,1.377,0,0,0,4.5,12.875h7A1.377,1.377,0,0,0,12.875,11.5v-7A1.377,1.377,0,0,0,11.5,3.125Z"/><path d="M6.5,12.125a.627.627,0,0,1-.4424-.1826l-2.5-2.5a.6256.6256,0,0,1,.8848-.8848l2.0381,2.0391,5.0586-5.5186a.6248.6248,0,0,1,.9218.8438l-5.5,6a.6261.6261,0,0,1-.4472.2031Z"/></svg>