<svg xmlns="http://www.w3.org/2000/svg" viewBox="0 0 24 24"><path d="m11 1-1 1v2l-0.9003906 0.9003906h-1.298828l-1.5-1.400391h-1.400391l-1.400391 1.400391v1.400391l1.400391 1.5v1.298828l-0.9003906 0.9003906h-2l-1 1v2l1 1h2l0.9003906 0.900391v1.298828l-1.400391 1.5v1.40039l1.400391 1.400391h1.400391l1.5-1.400391h1.298828l0.9003906 0.900391v2l1 1h2l1-1v-2l0.900391-0.900391h1.298828l1.5 1.400391h1.40039l1.400391-1.400391v-1.40039l-1.400391-1.5v-1.298828l0.900391-0.900391h2l1-1v-2l-1-1h-2l-0.900391-0.9003906v-1.298828l1.400391-1.5v-1.400391l-1.400391-1.400391h-1.40039l-1.5 1.400391h-1.298828l-0.900391-0.9003906v-2l-1-1h-2zm1 6a5 5 0 0 1 5 5 5 5 0 0 1-5 5 5 5 0 0 1-5-5 5 5 0 0 1 5-5z"/></svg>
