<svg xmlns="http://www.w3.org/2000/svg" viewBox="0 0 24 24"><path d="m6.5 9.8v11.2a0.9 0.9 0 0 1-1 1 0.9 0.9 0 0 1-1-1v-11.2a3 3 0 0 1 0-5.6v-1.2a0.9 0.9 0 0 1 1-1 0.9 0.9 0 0 1 1 1v1.2a3 3 0 0 1 0 5.6zm-1-4.3a1.5 1.5 0 0 0-1.5 1.5 1.5 1.5 0 0 0 1.5 1.5 1.5 1.5 0 0 0 1.5-1.5 1.5 1.5 0 0 0-1.5-1.5"/><path d="m19.5 13.8v7.2a1 1 0 0 1-2 0v-7.2a3 3 0 0 1 0-5.6v-5.2a1 1 0 0 1 2 0v5.2a3 3 0 0 1 0 5.6zm-1-4.3a1.5 1.5 0 1 0 1.5 1.5 1.5 1.5 0 0 0-1.5-1.5"/><path d="m13 18.8v2.2a1 1 0 0 1-2 0v-2.2a3 3 0 0 1 0-5.6v-10.2a1 1 0 0 1 2 0v10.2a3 3 0 0 1 0 5.6zm-1-4.3a1.5 1.5 0 1 0 1.5 1.5 1.5 1.5 0 0 0-1.5-1.5"/></svg>
