<svg xmlns="http://www.w3.org/2000/svg" viewBox="0 0 16 16">
	<path d="M15.564,9.632c-0.162-0.354-0.52-0.582-0.908-0.582H12.35V2c0-0.414-0.336-0.75-0.75-0.75S10.85,1.586,10.85,2v7.05H8.544
		c-0.389,0-0.746,0.229-0.909,0.582c-0.163,0.354-0.104,0.773,0.149,1.069l3.057,3.565c0.19,0.222,0.467,0.349,0.76,0.349
		c0.292,0,0.568-0.127,0.759-0.349l3.057-3.565c0,0,0-0.001,0.001-0.001C15.67,10.405,15.728,9.985,15.564,9.632z M11.601,12.848
		L9.63,10.55h3.94L11.601,12.848z"/>
	<path d="M8.364,6.369c0.163-0.354,0.104-0.773-0.148-1.07L5.16,1.735C4.97,1.512,4.694,1.384,4.401,1.384c0,0-0.001,0-0.001,0
		c-0.292,0-0.569,0.127-0.759,0.349L0.584,5.299c0,0,0,0,0,0C0.331,5.595,0.272,6.015,0.435,6.368S0.955,6.95,1.344,6.95H3.65V14
		c0,0.414,0.336,0.75,0.75,0.75S5.15,14.414,5.15,14V6.95h2.307C7.846,6.95,8.202,6.722,8.364,6.369z M2.43,5.45L4.4,3.152
		L6.369,5.45H2.43z"/>
</svg>
