<svg xmlns="http://www.w3.org/2000/svg" viewBox="0 0 16 16"><g id="Sort"><path d="M11.2383,7.125H4.7617a1.6256,1.6256,0,0,1-1.04-2.874L6.959,1.5527H6.96a1.6249,1.6249,0,0,1,2.08,0L12.2783,4.251a1.6256,1.6256,0,0,1-1.04,2.874Zm-3.48-4.6113L4.5225,5.2119a.3746.3746,0,0,0,.2392.6631h6.4766a.3746.3746,0,0,0,.2392-.6631L8.24,2.5137A.376.376,0,0,0,7.7588,2.5137Z"/><path d="M8,14.8232a1.6209,1.6209,0,0,1-1.04-.3759L3.7217,11.749a1.6256,1.6256,0,0,1,1.04-2.874h6.4766a1.6256,1.6256,0,0,1,1.04,2.874L9.041,14.4473H9.04A1.6209,1.6209,0,0,1,8,14.8232ZM4.7617,10.125a.3746.3746,0,0,0-.2392.6631L7.76,13.4863a.3747.3747,0,0,0,.4814,0l3.2363-2.6982a.3746.3746,0,0,0-.2392-.6631Z"/></g></svg>