<svg version="1.1" viewBox="0 0 16 16" xmlns="http://www.w3.org/2000/svg"><path d="M11.2383,7.125H4.7617a1.6256,1.6256,0,0,1-1.04-2.874L6.959,1.5527H6.96a1.6249,1.6249,0,0,1,2.08,0L12.2783,4.251a1.6256,1.6256,0,0,1-1.04,2.874Zm-3.48-4.6113L4.5225,5.2119a.3746.3746,0,0,0,.2392.6631h6.4766a.3746.3746,0,0,0,.2392-.6631L8.24,2.5137A.376.376,0,0,0,7.7588,2.5137Z"/><path d="m8 14.8232c-0.3800126 4.86e-4 -0.7481155-0.132562-1.04-0.3759l-3.2383-2.6983c-1.166921-0.973232-0.4795012-2.87289 1.04-2.874h6.4766c1.519501 0.00111 2.206921 1.900768 1.04 2.874l-3.2373 2.6983h-1e-3c-0.2918845 0.243338-0.6599874 0.376386-1.04 0.3759z"/></svg>
