<?xml version="1.0" encoding="utf-8"?>
<!-- Generator: Adobe Illustrator 25.0.1, SVG Export Plug-In . SVG Version: 6.00 Build 0)  -->
<svg version="1.1" id="Layer_1" xmlns="http://www.w3.org/2000/svg" xmlns:xlink="http://www.w3.org/1999/xlink" x="0px" y="0px"
	 viewBox="0 0 16 16" style="enable-background:new 0 0 16 16;" xml:space="preserve">
<path d="M4.8,7.1c-0.9,0-1.6-0.7-1.6-1.6c0-0.5,0.2-0.9,0.6-1.2L7,1.6c0,0,0,0,0,0c0.6-0.5,1.5-0.5,2.1,0l3.2,2.7
	c0.3,0.3,0.5,0.7,0.6,1.1c0,0.4-0.1,0.9-0.4,1.2c-0.3,0.4-0.8,0.6-1.2,0.6H4.8z M7.8,2.5L4.5,5.2C4.4,5.3,4.4,5.4,4.4,5.5
	c0,0.2,0.2,0.4,0.4,0.4h6.5c0.1,0,0.2,0,0.3-0.1c0.1-0.1,0.1-0.2,0.1-0.3c0-0.1-0.1-0.2-0.1-0.3L8.2,2.5C8.1,2.4,7.9,2.4,7.8,2.5
	L7.8,2.5z"/>
<path d="M8,14.8c-0.4,0-0.7-0.1-1-0.4l-3.2-2.7c-0.3-0.3-0.5-0.7-0.6-1.1c0-0.4,0.1-0.9,0.4-1.2c0.3-0.4,0.8-0.6,1.2-0.6h6.5
	c0.4,0,0.8,0.2,1.1,0.5s0.5,0.7,0.5,1.1c0,0.5-0.2,0.9-0.6,1.2L9,14.4l0,0C8.7,14.7,8.4,14.8,8,14.8z M4.8,10.1
	c-0.1,0-0.2,0-0.3,0.1c-0.1,0.1-0.1,0.2-0.1,0.3c0,0.1,0.1,0.2,0.1,0.3l3.2,2.7c0.1,0.1,0.3,0.1,0.5,0l3.2-2.7
	c0.1-0.1,0.1-0.2,0.1-0.3c0-0.1,0-0.2-0.1-0.3c-0.1-0.1-0.2-0.1-0.3-0.1H4.8z"/>
</svg>
