<svg version="1.1" viewBox="0 0 16 16" xmlns="http://www.w3.org/2000/svg"><path d="m11.2383 7.125h-6.4766c-1.519501-0.0011101-2.206921-1.900768-1.04-2.874l3.2373-2.6983h1e-3c0.6025047-0.5018946 1.477495-0.5018946 2.08 0l3.2383 2.6983c1.166921 0.9732322 0.479501 2.87289-1.04 2.874z"/><path d="M8,14.8232a1.6209,1.6209,0,0,1-1.04-.3759L3.7217,11.749a1.6256,1.6256,0,0,1,1.04-2.874h6.4766a1.6256,1.6256,0,0,1,1.04,2.874L9.041,14.4473H9.04A1.6209,1.6209,0,0,1,8,14.8232ZM4.7617,10.125a.3746.3746,0,0,0-.2392.6631L7.76,13.4863a.3747.3747,0,0,0,.4814,0l3.2363-2.6982a.3746.3746,0,0,0-.2392-.6631Z"/></svg>
