<svg viewBox="0 0 16 16" xmlns="http://www.w3.org/2000/svg"><path d="M9.502,15.752H9.499a2.11,2.11,0,0,1-1.5029-.626L1.1426,8.248A2.6429,2.6429,0,0,1,.377,6.3955L.376,3.501A3.1257,3.1257,0,0,1,3.501.375H6.4219a2.6113,2.6113,0,0,1,1.8564.7686l6.8535,6.8535a2.1264,2.1264,0,0,1,0,3.0058L11.0049,15.13A2.1141,2.1141,0,0,1,9.502,15.752ZM3.501,1.625A1.8754,1.8754,0,0,0,1.626,3.501l.001,2.8945a1.38,1.38,0,0,0,.4.97l6.8545,6.8789a.867.867,0,0,0,.6192.2579h.001a.8655.8655,0,0,0,.6181-.2569l4.127-4.1269a.8736.8736,0,0,0,0-1.2364L7.3936,2.0283a1.3812,1.3812,0,0,0-.9717-.4033ZM4.5,6.375A1.875,1.875,0,1,1,6.375,4.5,1.8767,1.8767,0,0,1,4.5,6.375Zm0-2.5a.625.625,0,1,0,.625.625A.6256.6256,0,0,0,4.5,3.875Z"/></svg>
