<svg xmlns="http://www.w3.org/2000/svg" viewBox="0 0 24 24"><path d="M7 4.8a2.5 2.5 0 0 0-1.6.6 2.4 2.4 0 0 0 0 3.2 2.4 2.4 0 0 0 3.2 0 2.4 2.4 0 0 0 0-3.2A2.5 2.5 0 0 0 7 4.8zm.7 2.9a1 1 0 0 1-1.4 0 1 1 0 0 1 0-1.4 1 1 0 0 1 1.4 0 1 1 0 0 1 0 1.4zm13.9 4.9L11.5 2.5A2 2 0 0 0 10 2v1.5h.5l10 10a.8.8 0 0 1 0 1.1l-5.8 5.8-.6.2a.6.6 0 0 1-.5-.2l-10-10s-.1-.1-.1-.5V5.5a2 2 0 0 1 2-2H10V2H5.5A3.5 3.5 0 0 0 2 5.5V10a2 2 0 0 0 .5 1.5l10.1 10.1a2.2 2.2 0 0 0 1.5.6 2.3 2.3 0 0 0 1.6-.6l5.9-5.9a2.3 2.3 0 0 0 0-3.1z" fill="#222221"/></svg>