<svg xmlns="http://www.w3.org/2000/svg" viewBox="0 0 24 24"><path d="M9.6 4.9a2.1 2.1 0 0 1 1.3.5l.4.4a5 5 0 0 1 1.3-2.2H7.9a2.9 2.9 0 0 0-2.5 1.3h4.2zm8.1 9.6L16.2 13A5.6 5.6 0 0 1 11 7.8L9.6 6.4a1.7 1.7 0 0 0-1.3-.5H4.7a2.9 2.9 0 0 0-2.9 2.9v3.6a1.7 1.7 0 0 0 .5 1.2l8.1 8.2a1.8 1.8 0 0 0 2.6-.1l4.7-4.7a1.8 1.8 0 0 0 0-2.5zM7.6 11.7a2.2 2.2 0 0 1-3 0 2.2 2.2 0 0 1 0-3 2 2 0 0 1 3 0 2.2 2.2 0 0 1 0 3zm14.3 1l-1.4-1.4a5.9 5.9 0 0 1-2.3 1.4l1.2 1.2a2 2 0 0 1 0 2.7L15 21a2 2 0 0 0 1.9-.5l5-5.1a1.8 1.8 0 0 0 0-2.7zm-8.4-4.2h2v2a1 1 0 0 0 2 0v-2h2a.9.9 0 0 0 1-1 .9.9 0 0 0-1-1h-2v-2a1 1 0 0 0-2 0v2h-2a.9.9 0 0 0-1 1 .9.9 0 0 0 1 1z" fill="#222221"/></svg>