<svg xmlns="http://www.w3.org/2000/svg" viewBox="0 0 24 24"><path d="M2,2H5V5H2Z"/><path d="m6.2 2h3v3h-3z"/><path d="m10.5 2h3v3h-3z"/><path d="m14.8 2h3v3h-3z"/><path d="m19 2h3v3h-3z"/><path d="M2,6.2H5v3H2Z"/><path d="m6.2 6.2h3v3h-3z"/><path d="m10.5 6.2h3v3h-3z"/><path d="m14.8 6.2h3v3h-3z"/><path d="m19 6.2h3v3h-3z"/><path d="M2,10.5H5v3H2Z"/><path d="m6.2 10.5h3v3h-3z"/><path d="m10.5 10.5h3v3h-3z"/><path d="m14.8 10.5h3v3h-3z"/><path d="m19 10.5h3v3h-3z"/><path d="M2,14.8H5v3H2Z"/><path d="m6.2 14.8h3v3h-3z"/><path d="m10.5 14.8h3v3h-3z"/><path d="m14.8 14.8h3v3h-3z"/><path d="m19 14.8h3v3h-3z"/><path d="M2,19H5v3H2Z"/><path d="m6.2 19h3v3h-3z"/><path d="m10.5 19h3v3h-3z"/><path d="m14.8 19h3v3h-3z"/><path d="m19 19h3v3h-3z"/></svg>
