<?xml version="1.0" encoding="utf-8"?>
<!-- Generator: Adobe Illustrator 25.0.1, SVG Export Plug-In . SVG Version: 6.00 Build 0)  -->
<svg version="1.1" id="Layer_1" xmlns="http://www.w3.org/2000/svg" xmlns:xlink="http://www.w3.org/1999/xlink" x="0px" y="0px"
	 viewBox="0 0 16 16" style="enable-background:new 0 0 16 16;" xml:space="preserve">
<style type="text/css">
	.st0{fill:none;}
</style>
<g id="R1" transform="translate(0.5 8.5)">
	<path class="st0" d="M2,0h3c1.1,0,2,0.9,2,2v3c0,1.1-0.9,2-2,2H2C0.9,7,0,6.1,0,5V2C0,0.9,0.9,0,2,0z"/>
	<path d="M5,6.9H2C1,6.9,0.1,6,0.1,5V2C0.1,1,1,0.1,2,0.1h3C6,0.1,6.9,1,6.9,2v3C6.9,6,6,6.9,5,6.9z M2,1.4C1.7,1.4,1.4,1.7,1.4,2v3
		c0,0.3,0.3,0.6,0.6,0.6h3c0.3,0,0.6-0.3,0.6-0.6V2c0-0.3-0.3-0.6-0.6-0.6H2z"/>
</g>
<g id="R2" transform="translate(8.5 8.5)">
	<path class="st0" d="M2,0h3c1.1,0,2,0.9,2,2v3c0,1.1-0.9,2-2,2H2C0.9,7,0,6.1,0,5V2C0,0.9,0.9,0,2,0z"/>
	<path d="M5,6.9H2C1,6.9,0.1,6,0.1,5V2C0.1,1,1,0.1,2,0.1h3C6,0.1,6.9,1,6.9,2v3C6.9,6,6,6.9,5,6.9z M2,1.4C1.7,1.4,1.4,1.7,1.4,2v3
		c0,0.3,0.3,0.6,0.6,0.6h3c0.3,0,0.6-0.3,0.6-0.6V2c0-0.3-0.3-0.6-0.6-0.6H2z"/>
</g>
<g id="R3" transform="translate(0.5 0.5)">
	<path class="st0" d="M2,0h3c1.1,0,2,0.9,2,2v3c0,1.1-0.9,2-2,2H2C0.9,7,0,6.1,0,5V2C0,0.9,0.9,0,2,0z"/>
	<path d="M5,6.9H2C1,6.9,0.1,6,0.1,5V2C0.1,1,1,0.1,2,0.1h3C6,0.1,6.9,1,6.9,2v3C6.9,6,6,6.9,5,6.9z M2,1.4C1.7,1.4,1.4,1.7,1.4,2v3
		c0,0.3,0.3,0.6,0.6,0.6h3c0.3,0,0.6-0.3,0.6-0.6V2c0-0.3-0.3-0.6-0.6-0.6H2z"/>
</g>
<g id="R4" transform="translate(8.5 0.5)">
	<path class="st0" d="M2,0h3c1.1,0,2,0.9,2,2v3c0,1.1-0.9,2-2,2H2C0.9,7,0,6.1,0,5V2C0,0.9,0.9,0,2,0z"/>
	<path d="M5,6.9H2C1,6.9,0.1,6,0.1,5V2C0.1,1,1,0.1,2,0.1h3C6,0.1,6.9,1,6.9,2v3C6.9,6,6,6.9,5,6.9z M2,1.4C1.7,1.4,1.4,1.7,1.4,2v3
		c0,0.3,0.3,0.6,0.6,0.6h3c0.3,0,0.6-0.3,0.6-0.6V2c0-0.3-0.3-0.6-0.6-0.6H2z"/>
</g>
</svg>
