<svg xmlns="http://www.w3.org/2000/svg" viewBox="0 0 16 16"><path d="M5.5,15.375h-3A1.8767,1.8767,0,0,1,.625,13.5v-3A1.8767,1.8767,0,0,1,2.5,8.625h3A1.8767,1.8767,0,0,1,7.375,10.5v3A1.8767,1.8767,0,0,1,5.5,15.375Zm-3-5.5a.6256.6256,0,0,0-.625.625v3a.6256.6256,0,0,0,.625.625h3a.6256.6256,0,0,0,.625-.625v-3A.6256.6256,0,0,0,5.5,9.875Z"/><path d="M13.5,15.375h-3A1.8767,1.8767,0,0,1,8.625,13.5v-3A1.8767,1.8767,0,0,1,10.5,8.625h3A1.8767,1.8767,0,0,1,15.375,10.5v3A1.8767,1.8767,0,0,1,13.5,15.375Zm-3-5.5a.6256.6256,0,0,0-.625.625v3a.6256.6256,0,0,0,.625.625h3a.6256.6256,0,0,0,.625-.625v-3a.6256.6256,0,0,0-.625-.625Z"/><path d="M5.5,7.375h-3A1.8767,1.8767,0,0,1,.625,5.5v-3A1.8767,1.8767,0,0,1,2.5.625h3A1.8767,1.8767,0,0,1,7.375,2.5v3A1.8767,1.8767,0,0,1,5.5,7.375Zm-3-5.5a.6256.6256,0,0,0-.625.625v3a.6256.6256,0,0,0,.625.625h3A.6256.6256,0,0,0,6.125,5.5v-3A.6256.6256,0,0,0,5.5,1.875Z"/><path d="M13.5,7.375h-3A1.8767,1.8767,0,0,1,8.625,5.5v-3A1.8767,1.8767,0,0,1,10.5.625h3A1.8767,1.8767,0,0,1,15.375,2.5v3A1.8767,1.8767,0,0,1,13.5,7.375Zm-3-5.5a.6256.6256,0,0,0-.625.625v3a.6256.6256,0,0,0,.625.625h3a.6256.6256,0,0,0,.625-.625v-3a.6256.6256,0,0,0-.625-.625Z"/></svg>
