<?xml version="1.0" encoding="utf-8"?>
<!-- Generator: Adobe Illustrator 25.4.1, SVG Export Plug-In . SVG Version: 6.00 Build 0)  -->
<svg version="1.1" id="Layer_1" xmlns="http://www.w3.org/2000/svg" xmlns:xlink="http://www.w3.org/1999/xlink" x="0px" y="0px"
	 viewBox="0 0 24 24" style="enable-background:new 0 0 24 24;" xml:space="preserve">
<g>
	<path d="M22,2l0,5l-6,0l0-5L22,2z M13.5,2l0,5L2,7l0-5L13.5,2z M22,9.5l0,5l-3,0l0-5L22,9.5z M22,17l0,5l-9.5,0l0-5L22,17z M10,17
		l0,5l-8,0l0-5L10,17z M16.5,9.5l0,5l-8,0v-5L16.5,9.5z M6,9.5v5l-4,0l0-5L6,9.5z"/>
</g>
</svg>
