<svg xmlns="http://www.w3.org/2000/svg" viewBox="0 0 24 24"><path d="M21.1 3H21a4 4 0 00-5.7 0l-1.5 1.5a4 4 0 00-.6 4.9l-3.3 3.2a1 1 0 101.4 1.4l3.3-3.3a4 4 0 004.9-.6l1.6-1.6a4 4 0 000-5.7zm-1.4 4.3l-1.6 1.5a2 2 0 01-2 .5l.7-.7a1 1 0 00-1.4-1.4l-.7.7a2 2 0 01.5-2l1.6-1.6a2 2 0 012.8 0h.1a2 2 0 010 2.8z" fill="#222221"/><path d="M9.5 16.5h-.1v.2a2 2 0 01-.6 1.4l-1.5 1.6a2 2 0 01-2.8 0h-.2a2 2 0 010-2.8l1.6-1.6a2 2 0 011.4-.6h.2a2 2 0 011-1.7l-1.2-.2A4 4 0 004.5 14l-1.6 1.3a4 4 0 000 5.7H3a4 4 0 005.7 0l1.6-1.6a3.9 3.9 0 001-4 2 2 0 01-1.8 1.1z" fill="#222221"/></svg>