<svg xmlns="http://www.w3.org/2000/svg" width="115.71" height="26.97" viewBox="0 0 115.71 26.97"><path d="M40.08595,6.64408H43.5381l5.16406,14.59765H45.39454l-.96289-3.001h-5.376l-.98925,3.001H34.876Zm-.2002,9.08105H43.624L41.78028,9.982Z" fill="#fff"/><path d="M53.21388,21.24173H50.39161V6.64408h2.82227Z" fill="#fff"/><path d="M58.84864,21.24173H56.02638V6.64408h2.82226Z" fill="#fff"/><path d="M64.41407,10.44681v6.50684a3.42237,3.42237,0,0,0,.2168,1.38672,1.49868,1.49868,0,0,0,1.50781.82129,1.96951,1.96951,0,0,0,1.9707-1.168,4.25781,4.25781,0,0,0,.27539-1.67383v-5.873h2.86231V21.24173H68.50392V19.71634c-.02637.03321-.0918.13282-.19727.29786a2.0091,2.0091,0,0,1-.375.43554,3.92176,3.92176,0,0,1-1.2793.81153,4.33975,4.33975,0,0,1-1.44726.21777,3.22263,3.22263,0,0,1-3.21875-1.72266,6.60965,6.60965,0,0,1-.46387-2.80273V10.44681Z" fill="#fff"/><path d="M76.17872,17.79545a1.8817,1.8817,0,0,0,.3877,1.06933,2.62925,2.62925,0,0,0,1.95019.56445,2.98731,2.98731,0,0,0,1.3291-.24707.82979.82979,0,0,0,.09571-1.46582,16.172,16.172,0,0,0-2.95313-.85156,6.11936,6.11936,0,0,1-2.5918-1.13965,2.46674,2.46674,0,0,1-.75293-1.94043,3.36411,3.36411,0,0,1,1.17579-2.57031,4.733,4.733,0,0,1,3.30957-1.07422,6.0811,6.0811,0,0,1,3.2998.80664,3.458,3.458,0,0,1,1.46484,2.78809H80.07032a1.65385,1.65385,0,0,0-.30762-.86133,1.94058,1.94058,0,0,0-1.58886-.57422,2.2866,2.2866,0,0,0-1.31543.28711.82588.82588,0,0,0-.39258.67285.73488.73488,0,0,0,.417.70313,17.98755,17.98755,0,0,0,2.94727.78222,5.41032,5.41032,0,0,1,2.52832,1.19922,2.71868,2.71868,0,0,1,.832,2.0293,3.27644,3.27644,0,0,1-1.19629,2.62012A5.62512,5.62512,0,0,1,78.29786,21.608a5.57472,5.57472,0,0,1-3.76562-1.07422,3.49276,3.49276,0,0,1-1.21582-2.73828Z" fill="#fff"/><path d="M88.17188,9.1597h-2.8623V6.55521h2.8623Zm-2.8623,1.28711h2.8623V21.24173h-2.8623Z" fill="#fff"/><path d="M99.90724,19.92142a5.94772,5.94772,0,0,1-8.29883,0,6.24977,6.24977,0,0,1-1.36719-4.0625,6.29117,6.29117,0,0,1,1.36719-4.04687,5.88471,5.88471,0,0,1,8.29883,0,6.29046,6.29046,0,0,1,1.36621,4.04687A6.24911,6.24911,0,0,1,99.90724,19.92142Zm-2.25782-1.56054a4.08676,4.08676,0,0,0,.66309-2.502,4.06382,4.06382,0,0,0-.66309-2.49609,2.5068,2.5068,0,0,0-3.80761,0,4.03755,4.03755,0,0,0-.66895,2.49609,4.0603,4.0603,0,0,0,.66895,2.502,2.4978,2.4978,0,0,0,3.80761,0Z" fill="#fff"/><path d="M111.999,11.066a3.57114,3.57114,0,0,1,1.06055,2.90625v7.26953H110.168V14.67631a3.02,3.02,0,0,0-.22656-1.30762,1.5885,1.5885,0,0,0-1.57325-.832,1.95039,1.95039,0,0,0-1.95605,1.21777,4.21409,4.21409,0,0,0-.27539,1.64453v5.84277h-2.82227V10.46732h2.7334v1.57422a4.7727,4.7727,0,0,1,1.02539-1.19824,3.55391,3.55391,0,0,1,2.19922-.65332A4.13877,4.13877,0,0,1,111.999,11.066Z" fill="#fff"/><path d="M15.50885,4.85612A8.61837,8.61837,0,0,1,16.60273,3.481a5.3013,5.3013,0,0,1,5.199-1.20751c1.294.58217,1.65969,1.92952,1.94642,3.18322.42368,1.85254-.01105,3.43482.0055,5.25109.01351,1.475.30276,2.90431,1.66886,3.609,1.25621.648,2.84631.87113,3.85179,1.93244,1.64318,1.73441.67879,4.25333-.66882,5.84236-1.724,2.03288-4.94922,3.76384-7.54084,2.38653-1.72-.91411-2.95525-2.22695-4.96863-2.59272-2.63979-.47956-4.55687.67959-6.806,1.86122a6.21331,6.21331,0,0,1-4.33449.97438,4.033,4.033,0,0,1-2.837-3.07133c-.46918-1.98771.46528-4.86038,2.41015-5.769,1.38807-.64848,2.77391-1.30535,4.11637-2.04489a16.2096,16.2096,0,0,0,3.49505-2.23837,10.45164,10.45164,0,0,0,1.83507-3.56374A16.37031,16.37031,0,0,1,15.50885,4.85612Z" fill="#fff"/></svg>