<svg xmlns="http://www.w3.org/2000/svg" viewBox="0 0 16 16"><path d="M7.7011,3.40056a4.59447,4.59447,0,0,1,.58307-.733A2.82574,2.82574,0,0,1,11.05541,2.024,2.16544,2.16544,0,0,1,12.0929,3.72071a12.07455,12.07455,0,0,1,.00294,2.799,1.96522,1.96522,0,0,0,.88955,1.92372,6.89583,6.89583,0,0,1,2.05311,1.03c.87586.92449.36181,2.26715-.3565,3.11415-.919,1.08358-2.63808,2.00623-4.01948,1.27209a9.03668,9.03668,0,0,0-2.64842-1.382c-1.40708-.25562-2.42894.36224-3.62779.99209a3.31194,3.31194,0,0,1-2.31041.51937A2.14972,2.14972,0,0,1,.56371,12.352,2.89141,2.89141,0,0,1,1.84839,9.277c.73988-.34566,1.47857-.69579,2.19414-1.09a8.64007,8.64007,0,0,0,1.863-1.19311,5.57108,5.57108,0,0,0,.97814-1.89957A8.7258,8.7258,0,0,1,7.7011,3.40056Z" fill="#fff"/></svg>