<svg xmlns="http://www.w3.org/2000/svg" viewBox="0 0 32 32"><path d="M2.9993,24.14142H4.32371L6.3053,29.74251H5.03593L4.66642,28.5909H2.60394l-.38005,1.15161H1ZM2.92224,27.626H4.35673L3.6493,25.42179Z" fill="#1c1e23"/><path d="M8.03607,29.74251H6.95338V24.14142H8.03607Z" fill="#1c1e23"/><path d="M10.19859,29.74251H9.1159V24.14142h1.08269Z" fill="#1c1e23"/><path d="M12.3343,25.60032v2.49661a1.32136,1.32136,0,0,0,.08281.53226.57612.57612,0,0,0,.57868.31542.7554.7554,0,0,0,.75626-.44849,1.63536,1.63536,0,0,0,.10578-.64234V25.60032h1.09849v4.14219H13.90378v-.58538c-.01053.01293-.03542.05074-.07611.1144a.75326.75326,0,0,1-.14407.16705,1.50012,1.50012,0,0,1-.49061.31159,1.67263,1.67263,0,0,1-.55523.08377,1.23742,1.23742,0,0,1-1.23538-.66149,2.537,2.537,0,0,1-.17806-1.07552V25.60032Z" fill="#1c1e23"/><path d="M16.8484,28.42a.72221.72221,0,0,0,.14933.41068,1.0104,1.0104,0,0,0,.74813.21634,1.14721,1.14721,0,0,0,.50975-.09477.31825.31825,0,0,0,.03686-.56241,6.184,6.184,0,0,0-1.133-.32691,2.36026,2.36026,0,0,1-.99511-.437.94805.94805,0,0,1-.28862-.74477,1.28977,1.28977,0,0,1,.45136-.986,1.8128,1.8128,0,0,1,1.26985-.41259,2.337,2.337,0,0,1,1.26649.30968,1.32769,1.32769,0,0,1,.56145,1.06977H18.34225a.64494.64494,0,0,0-.11823-.33074.74463.74463,0,0,0-.60979-.22018.88021.88021,0,0,0-.505.11009.3182.3182,0,0,0-.1503.25847.28311.28311,0,0,0,.15987.26995,7.00957,7.00957,0,0,0,1.131.30011,2.0754,2.0754,0,0,1,.97021.46,1.04408,1.04408,0,0,1,.31878.77876,1.25758,1.25758,0,0,1-.45854,1.00515,2.1601,2.1601,0,0,1-1.41823.38962,2.13577,2.13577,0,0,1-1.445-.4126A1.33964,1.33964,0,0,1,15.75039,28.42Z" fill="#1c1e23"/><path d="M21.45056,25.10636h-1.098V24.107h1.098Zm-1.098.494h1.098v4.14219h-1.098Z" fill="#1c1e23"/><path d="M25.95365,29.23563a1.92823,1.92823,0,0,1-1.59245.64761,1.92661,1.92661,0,0,1-1.592-.64761,2.56873,2.56873,0,0,1,0-3.11119,1.91378,1.91378,0,0,1,1.592-.65718,1.91538,1.91538,0,0,1,1.59245.65718,2.57057,2.57057,0,0,1,0,3.11119Zm-.86635-.59831a1.93709,1.93709,0,0,0,0-1.9184.9633.9633,0,0,0-1.4613,0,1.92142,1.92142,0,0,0,0,1.9184.95973.95973,0,0,0,1.4613,0Z" fill="#1c1e23"/><path d="M30.59315,25.83773A1.3713,1.3713,0,0,1,31,26.95345v2.78906H29.8905V27.22293a1.16459,1.16459,0,0,0-.08663-.50162.61043.61043,0,0,0-.60357-.31926.7488.7488,0,0,0-.751.46764,1.6163,1.6163,0,0,0-.10578.63085v2.242H27.26083V25.608h1.04871v.604a1.84423,1.84423,0,0,1,.39345-.4595,1.3623,1.3623,0,0,1,.84385-.25081A1.58885,1.58885,0,0,1,30.59315,25.83773Z" fill="#1c1e23"/><path d="M15.55726,4.37353a6.80529,6.80529,0,0,1,.86367-1.08569,4.18558,4.18558,0,0,1,4.10485-.95338,3.20756,3.20756,0,0,1,1.53678,2.51328c.33451,1.46265-.00873,2.71193.00434,4.146a2.911,2.911,0,0,0,1.31763,2.84947c.99183.51164,2.24728.6878,3.04115,1.52574,1.29735,1.36939.53593,3.35818-.52807,4.61278-1.36119,1.605-3.9076,2.97171-5.95379,1.88427-1.358-.72173-2.33329-1.75828-3.92294-2.04706-2.08422-.37864-3.59783.53656-5.37361,1.46951a4.90571,4.90571,0,0,1-3.42225.76931A3.18426,3.18426,0,0,1,4.9851,17.63277c-.37043-1.56938.36736-3.83747,1.90291-4.55484,1.09594-.512,2.19011-1.03062,3.25-1.61452a12.7982,12.7982,0,0,0,2.75948-1.76729A8.25184,8.25184,0,0,0,14.3464,6.88241,12.92543,12.92543,0,0,1,15.55726,4.37353Z" fill="#1c1e23"/></svg>