<svg xmlns="http://www.w3.org/2000/svg" width="16" height="16" viewBox="0 0 16 16"><path d="M7.7011,3.52411a4.594,4.594,0,0,1,.58307-.733,2.82574,2.82574,0,0,1,2.77124-.64364A2.16544,2.16544,0,0,1,12.0929,3.84425a12.07463,12.07463,0,0,1,.00294,2.799A1.96523,1.96523,0,0,0,12.98539,8.567a6.89583,6.89583,0,0,1,2.05311,1.03c.87586.92449.36181,2.26715-.3565,3.11414-.919,1.08358-2.63808,2.00624-4.01948,1.2721a9.03645,9.03645,0,0,0-2.64842-1.382c-1.40708-.25562-2.42894.36224-3.62779.99209a3.31188,3.31188,0,0,1-2.31041.51936,2.14969,2.14969,0,0,1-1.51219-1.6371,2.89143,2.89143,0,0,1,1.28468-3.075c.73988-.34565,1.47857-.69578,2.19414-1.09a8.64083,8.64083,0,0,0,1.863-1.19311,5.571,5.571,0,0,0,.97814-1.89958A8.72572,8.72572,0,0,1,7.7011,3.52411Z" fill="#1c1e23"/></svg>