<svg xmlns="http://www.w3.org/2000/svg" viewBox="0 0 115.71 26.97"><path d="M40.73731,6.57492h3.45215l5.16406,14.59765H46.04591l-.96289-3.001H39.707l-.98926,3.001H35.52735ZM40.53712,15.656H44.2754L42.43165,9.91281Z" fill="#1c1e23"/><path d="M53.86524,21.17257H51.043V6.57492h2.82226Z" fill="#1c1e23"/><path d="M59.5,21.17257H56.67774V6.57492H59.5Z" fill="#1c1e23"/><path d="M65.06544,10.37765v6.50684a3.4222,3.4222,0,0,0,.2168,1.38672A1.49867,1.49867,0,0,0,66.79,19.0925a1.96952,1.96952,0,0,0,1.9707-1.168,4.25781,4.25781,0,0,0,.27539-1.67383v-5.873h2.86231V21.17257H69.15528V19.64718c-.02636.03321-.09179.13282-.19726.29786a2.0091,2.0091,0,0,1-.375.43554,3.92187,3.92187,0,0,1-1.2793.81153,4.33977,4.33977,0,0,1-1.44727.21777,3.22265,3.22265,0,0,1-3.21875-1.72266,6.60967,6.60967,0,0,1-.46386-2.80273V10.37765Z" fill="#1c1e23"/><path d="M76.83009,17.72629a1.88178,1.88178,0,0,0,.38769,1.06933,2.62929,2.62929,0,0,0,1.9502.56445,2.98734,2.98734,0,0,0,1.3291-.24707.82979.82979,0,0,0,.0957-1.46582,16.17173,16.17173,0,0,0-2.95312-.85156,6.11936,6.11936,0,0,1-2.5918-1.13965,2.46674,2.46674,0,0,1-.75293-1.94043,3.3641,3.3641,0,0,1,1.17578-2.57031A4.733,4.733,0,0,1,78.78028,10.071a6.08111,6.08111,0,0,1,3.29981.80664,3.45806,3.45806,0,0,1,1.46484,2.78809H80.72169a1.65385,1.65385,0,0,0-.30762-.86133,1.94059,1.94059,0,0,0-1.58887-.57422,2.28664,2.28664,0,0,0-1.31543.28711.82589.82589,0,0,0-.39257.67285.73488.73488,0,0,0,.417.70313,17.98762,17.98762,0,0,0,2.94726.78222,5.41022,5.41022,0,0,1,2.52832,1.19922,2.71869,2.71869,0,0,1,.832,2.0293,3.27644,3.27644,0,0,1-1.19629,2.62012,5.62512,5.62512,0,0,1-3.69629,1.01465,5.57475,5.57475,0,0,1-3.76563-1.07422,3.4928,3.4928,0,0,1-1.21582-2.73828Z" fill="#1c1e23"/><path d="M88.82325,9.09054H85.961V6.48605h2.8623ZM85.961,10.37765h2.8623V21.17257H85.961Z" fill="#1c1e23"/><path d="M100.5586,19.85226a5.94772,5.94772,0,0,1-8.29883,0,6.24982,6.24982,0,0,1-1.36718-4.0625,6.29122,6.29122,0,0,1,1.36718-4.04687,5.88471,5.88471,0,0,1,8.29883,0,6.2904,6.2904,0,0,1,1.36621,4.04687A6.24906,6.24906,0,0,1,100.5586,19.85226Zm-2.25781-1.56054a4.08683,4.08683,0,0,0,.66309-2.502,4.06389,4.06389,0,0,0-.66309-2.49609,2.50681,2.50681,0,0,0-3.80762,0,4.03755,4.03755,0,0,0-.66894,2.49609,4.0603,4.0603,0,0,0,.66894,2.502,2.49781,2.49781,0,0,0,3.80762,0Z" fill="#1c1e23"/><path d="M112.6504,10.99679A3.57114,3.57114,0,0,1,113.711,13.903v7.26953h-2.8916V14.60715a3.02,3.02,0,0,0-.22657-1.30762,1.58847,1.58847,0,0,0-1.57324-.832,1.95039,1.95039,0,0,0-1.95605,1.21777,4.21409,4.21409,0,0,0-.27539,1.64453v5.84277h-2.82227V10.39816h2.7334v1.57422a4.7725,4.7725,0,0,1,1.02539-1.19824,3.55389,3.55389,0,0,1,2.19922-.65332A4.13877,4.13877,0,0,1,112.6504,10.99679Z" fill="#1c1e23"/><path d="M15.50885,4.85612A8.61873,8.61873,0,0,1,16.60273,3.481a5.30131,5.30131,0,0,1,5.199-1.20752c1.294.58218,1.65969,1.92953,1.94642,3.18322.42368,1.85254-.01105,3.43482.0055,5.25109.01351,1.475.30276,2.90432,1.66886,3.609,1.2562.648,2.84631.87114,3.85179,1.93244,1.64318,1.73441.67879,4.25333-.66882,5.84236-1.724,2.03288-4.94922,3.76385-7.54084,2.38654-1.72-.91412-2.95525-2.227-4.96863-2.59272-2.63979-.47957-4.55687.67958-6.806,1.86122a6.21328,6.21328,0,0,1-4.33448.97437,4.033,4.033,0,0,1-2.837-3.07132c-.46918-1.98772.46528-4.86039,2.41015-5.769,1.38807-.64847,2.77391-1.30534,4.11636-2.04489a16.20942,16.20942,0,0,0,3.49506-2.23837,10.45146,10.45146,0,0,0,1.83507-3.56374A16.37031,16.37031,0,0,1,15.50885,4.85612Z" fill="#1c1e23"/></svg>