<svg xmlns="http://www.w3.org/2000/svg" viewBox="0 0 32 32"><path d="M15.40221,6.92467a9.188,9.188,0,0,1,1.16614-1.46593c1.23227-1.24361,3.86251-2.04307,5.54247-1.28728,1.37952.62064,1.76932,2.057,2.075,3.3935.45167,1.97491-.01178,3.66171.00586,5.598.01441,1.57248.32276,3.09616,1.77911,3.84742,1.33918.69083,3.03432.92868,4.10622,2.06009,1.75172,1.849.72362,4.53429-.713,6.22829-1.83791,2.16716-5.27615,4.01247-8.039,2.54418-1.83366-.97449-3.15046-2.37406-5.29684-2.764-2.81417-.51124-4.85788.72448-7.25559,1.98417-1.39209.73137-3.01291,1.45534-4.6208,1.03874a4.29944,4.29944,0,0,1-3.02439-3.2742c-.50017-2.119.496-5.18145,2.56935-6.15006,1.47976-.69131,2.95715-1.39157,4.38828-2.18A17.28055,17.28055,0,0,0,11.811,14.11136a11.1419,11.1419,0,0,0,1.95629-3.79914A17.45093,17.45093,0,0,1,15.40221,6.92467Z" fill="#1c1e23"/><rect y="0.12355" width="32" height="32" fill="none"/></svg>