<svg xmlns="http://www.w3.org/2000/svg" xmlns:xlink="http://www.w3.org/1999/xlink" viewBox="0 0 32 32"><defs><linearGradient id="a" x1="10.02" y1="19.52" x2="22.37" y2="9.75" gradientUnits="userSpaceOnUse"><stop offset="0" stop-color="#009de0"/><stop offset="1" stop-color="#f7ea3a"/></linearGradient></defs><title>Volkswagen-allusion-mark-white</title><path d="M3,24.1H4.3l2,5.6H5l-.3-1.1H2.6l-.4,1.1H1Zm-.1,3.5H4.4l-.8-2.2Z"/><path d="M8,29.7H7V24.1H8Z"/><path d="M10.2,29.7H9.1V24.1h1.1Z"/><path d="M12.3,25.6v2.5a4.3,4.3,0,0,0,.1.5.6.6,0,0,0,.6.3.8.8,0,0,0,.8-.4c0-.2.1-.4.1-.6V25.6H15v4.1H13.9v-.5h-.2l-.5.4h-.6a1.2,1.2,0,0,1-1.2-.6,3.1,3.1,0,0,1-.2-1.1V25.6Z"/><path d="M16.8,28.4c.1.2.1.3.2.4s.4.2.7.2h.6a.4.4,0,0,0,.1-.3c0-.2,0-.2-.1-.3l-1.1-.3-1-.5a.8.8,0,0,1-.3-.7,1.3,1.3,0,0,1,.4-1,1.8,1.8,0,0,1,1.3-.4,2.8,2.8,0,0,1,1.3.3,1.3,1.3,0,0,1,.5,1.1H18.3c0-.2,0-.3-.1-.4l-.6-.2h-.5a.4.4,0,0,0-.1.3c0,.1,0,.2.1.2l1.1.3a3,3,0,0,1,1,.5,1.1,1.1,0,0,1,.3.8,1.3,1.3,0,0,1-.4,1,2,2,0,0,1-1.4.4,2.7,2.7,0,0,1-1.5-.4,1.5,1.5,0,0,1-.4-1.1Z"/><path d="M21.5,25.1H20.4v-1h1.1Zm-1.1.5h1.1v4.1H20.4Z"/><path d="M26,29.2a1.9,1.9,0,0,1-1.6.7,1.7,1.7,0,0,1-1.6-.7,2,2,0,0,1-.6-1.5,2.5,2.5,0,0,1,.6-1.6,1.8,1.8,0,0,1,1.6-.6,2.1,2.1,0,0,1,1.6.6,3,3,0,0,1,.5,1.6A2.5,2.5,0,0,1,26,29.2Zm-.9-.6c.2-.2.2-.5.2-.9a1.5,1.5,0,0,0-.2-1,.9.9,0,0,0-.7-.3,1,1,0,0,0-.8.3,2.5,2.5,0,0,0-.2,1,2,2,0,0,0,.2.9.8.8,0,0,0,.8.4A.8.8,0,0,0,25.1,28.6Z"/><path d="M30.6,25.8A1.5,1.5,0,0,1,31,27v2.7H29.9V27.2a.7.7,0,0,0-.1-.5.6.6,0,0,0-.6-.3.9.9,0,0,0-.8.5,3.5,3.5,0,0,0-.1.6v2.2h-1V25.6h1v.6c.1-.2.3-.4.4-.4a1.1,1.1,0,0,1,.8-.3A1.8,1.8,0,0,1,30.6,25.8Z"/><path d="M15.6,4.4a4.4,4.4,0,0,1,.8-1.1,4.4,4.4,0,0,1,4.1-1,3.8,3.8,0,0,1,1.6,2.5,19.7,19.7,0,0,1,0,4.2c0,1.2.2,2.3,1.3,2.8s2.2.7,3,1.6.6,3.3-.5,4.6-3.9,3-6,1.9-2.3-1.8-3.9-2.1-3.6.6-5.4,1.5a5.1,5.1,0,0,1-3.4.8A3.3,3.3,0,0,1,5,17.6a4.2,4.2,0,0,1,1.9-4.5l3.2-1.6a13.4,13.4,0,0,0,2.8-1.8,7.4,7.4,0,0,0,1.4-2.8A11.9,11.9,0,0,1,15.6,4.4Z" fill="url(#a)"/></svg>