<svg xmlns="http://www.w3.org/2000/svg" viewBox="0 0 48 48">
  <title>add-tag-outline</title>
  <g id="layout">
    <g>
      <g>
        <path d="M24,35a2,2,0,0,1-2-2V15a2,2,0,0,1,4,0V33A2,2,0,0,1,24,35Z" fill="#222221"/>
        <path d="M33,26H15a2,2,0,0,1,0-4H33a2,2,0,0,1,0,4Z" fill="#222221"/>
      </g>
      <path d="M37,8a3,3,0,0,1,3,3V37a3,3,0,0,1-3,3H11a3,3,0,0,1-3-3V11a3,3,0,0,1,3-3H37m0-3H11a6,6,0,0,0-6,6V37a6,6,0,0,0,6,6H37a6,6,0,0,0,6-6V11a6,6,0,0,0-6-6Z" fill="#222221"/>
    </g>
  </g>
</svg>
