<svg xmlns="http://www.w3.org/2000/svg" viewBox="0 0 48 48">
  <title>add-tag-fill</title>
  <g id="layout">
    <g opacity="0.25">
      <rect x="6.5" y="6.5" width="35" height="35" rx="4.5" ry="4.5" fill="#222221"/>
      <path d="M37,8a3,3,0,0,1,3,3V37a3,3,0,0,1-3,3H11a3,3,0,0,1-3-3V11a3,3,0,0,1,3-3H37m0-3H11a6,6,0,0,0-6,6V37a6,6,0,0,0,6,6H37a6,6,0,0,0,6-6V11a6,6,0,0,0-6-6Z" fill="#222221"/>
    </g>
    <g>
      <path d="M24,33.5a.5.5,0,0,1-.5-.5V24.5H15a.5.5,0,0,1,0-1h8.5V15a.5.5,0,0,1,1,0v8.5H33a.5.5,0,0,1,0,1H24.5V33A.5.5,0,0,1,24,33.5Z" fill="#222221"/>
      <path d="M24,13a2,2,0,0,0-2,2v7H15a2,2,0,0,0,0,4h7v7a2,2,0,0,0,4,0V26h7a2,2,0,0,0,0-4H26V15a2,2,0,0,0-2-2Z" fill="#222221"/>
    </g>
  </g>
</svg>
