<svg xmlns="http://www.w3.org/2000/svg" viewBox="0 0 48 48">
  <title>add-tag-trans</title>
  <g id="layout">
    <g>
      <path d="M24,33.5a.5.5,0,0,1-.5-.5V24.5H15a.5.5,0,0,1,0-1h8.5V15a.5.5,0,0,1,1,0v8.5H33a.5.5,0,0,1,0,1H24.5V33A.5.5,0,0,1,24,33.5Z" fill="#222221"/>
      <path d="M24,13a2,2,0,0,0-2,2v7H15a2,2,0,0,0,0,4h7v7a2,2,0,0,0,4,0V26h7a2,2,0,0,0,0-4H26V15a2,2,0,0,0-2-2Z" fill="#222221"/>
    </g>
    <path d="M36,6H12a6,6,0,0,0-6,6V36a6,6,0,0,0,6,6H36a6,6,0,0,0,6-6V12a6,6,0,0,0-6-6Z" fill="#222221" opacity="0.25"/>
  </g>
</svg>
