<svg xmlns="http://www.w3.org/2000/svg" viewBox="0 0 24 24">
  <circle cx="12" cy="12" r="3.25" fill="#231f20"/>
  <g>
    <path d="M7.305,10.337A4.986,4.986,0,0,1,12,7c.052,0,.1.014.151.015h8.51A9.98,9.98,0,0,0,4.473,5.431Z" fill="#231f20"/>
    <path d="M12.9,16.909a4.89,4.89,0,0,1-5.248-2.485l-.006,0L3.353,6.993A9.983,9.983,0,0,0,10.071,21.81Z" fill="#231f20"/>
    <path d="M15.784,8.766a4.895,4.895,0,0,1,.493,5.789l0,0-.069.118c-.028.045-.049.094-.079.137L11.983,22H12A9.981,9.981,0,0,0,21.455,8.766Z" fill="#231f20"/>
  </g>
</svg>
