<svg xmlns="http://www.w3.org/2000/svg" viewBox="0 0 24 24"><g fill="#231f20"><path d="M12 2.2c-4.8 0-9.8 1.3-9.8 3.7v12c0 2.4 5 3.6 9.8 3.6s9.8-1.2 9.8-3.6v-12c0-2.4-5-3.7-9.8-3.7zm0 1.6c5.1 0 8.2 1.3 8.2 2.1S17.1 8 12 8 3.8 6.6 3.8 5.9 6.9 3.8 12 3.8zm8.2 14.1c0 .7-3.1 2.1-8.2 2.1s-8.2-1.4-8.2-2.1v-2h.1l.5.2h.2l1.7.6a25.6 25.6 0 0 0 5.7.6 26 26 0 0 0 4-.3v1h3v-1.5l.4-.2h.2l.5-.2h.1zM12 16c-5.1 0-8.2-1.4-8.2-2.1v-2h.1l.5.2h.2l1.7.6a25.6 25.6 0 0 0 5.7.6 26 26 0 0 0 4-.3v1h3v-1.5l.4-.2h.2l.5-.2h.1v2c0 .5-3.1 1.9-8.2 1.9zm0-4c-5.1 0-8.2-1.4-8.2-2.1v-2h.1l.5.2h.2l1.7.6a25.6 25.6 0 0 0 5.7.6 26 26 0 0 0 4-.3v1h3V8.5l.4-.2h.2l.5-.2h.1v2c0 .5-3.1 1.9-8.2 1.9z"/><ellipse cx="12" cy="5.9" rx="2" ry=".6"/></g></svg>