<svg xmlns="http://www.w3.org/2000/svg" viewBox="0 0 48 48">
  <title>collection-add</title>
  <g id="layout">
    <g>
      <g>
        <circle cx="10.8" cy="15" r="3.2" transform="translate(-7.4 12.1) rotate(-45)" fill="none"/>
        <path d="M43.8,25.4l-4.1-4.1A10.5,10.5,0,0,1,38,23.9a5.6,5.6,0,0,1-.4,7.5l-8.5,8.5.2.2a3.7,3.7,0,0,0,5.2,0l9.4-9.4A3.7,3.7,0,0,0,43.8,25.4Z" fill="#222221"/>
        <path d="M20,16.5a10.4,10.4,0,0,1,1.9-6L19.6,8.3a3.7,3.7,0,0,0-2.6-1.1H7.6A3.7,3.7,0,0,0,4,10.9v9.4a3.7,3.7,0,0,0,1.1,2.6L21.5,39.3a3.7,3.7,0,0,0,5.2,0l9.4-9.4a3.6,3.6,0,0,0,.3-4.8A10.5,10.5,0,0,1,20,16.5Zm-6.9.7a3.2,3.2,0,1,1,0-4.5A3.2,3.2,0,0,1,13.1,17.2Z" fill="#222221"/>
      </g>
      <g>
        <path d="M30.5,24.5A1.5,1.5,0,0,1,29,23V10a1.5,1.5,0,0,1,3,0V23A1.5,1.5,0,0,1,30.5,24.5Z" fill="#222221"/>
        <path d="M37,18H24a1.5,1.5,0,0,1,0-3H37a1.5,1.5,0,0,1,0,3Z" fill="#222221"/>
      </g>
    </g>
  </g>
</svg>
