<svg xmlns="http://www.w3.org/2000/svg" width="48" height="48" viewBox="0 0 48 48">
  <title>Date-icon-16x</title>
  <g id="layout">
    <g>
      <path d="M39,16V36a3,3,0,0,1-3,3H13a3,3,0,0,1-3-3V16H39m3-3H7V36a6,6,0,0,0,6,6H36a6,6,0,0,0,6-6V13Z" fill="#222221"/>
      <polygon points="18 3 15 3 15 12 18 12 18 3 18 3" fill="#222221"/>
      <polygon points="34 3 31 3 31 12 34 12 34 3 34 3" fill="#222221"/>
      <path d="M36,6v7H29V6H20v7H13V6a6,6,0,0,0-6,6v3H42V12A6,6,0,0,0,36,6Z" fill="#222221" fill-rule="evenodd"/>
    </g>
  </g>
</svg>
