<svg xmlns="http://www.w3.org/2000/svg" viewBox="0 0 48 48">
  <title>db-error</title>
  <g>
    <path d="M16.1,24,18,22.1l1.9,2a1.7,1.7,0,0,0,2.2,0,1.8,1.8,0,0,0,0-2.2l-2-1.9L22,18.1A1.5,1.5,0,0,0,19.9,16L18,17.9l-1.9-2a1.8,1.8,0,0,0-2.2,0,1.8,1.8,0,0,0,0,2.2l2,1.9L14,21.9A1.4,1.4,0,0,0,14,24a1.2,1.2,0,0,0,1,.5A1.6,1.6,0,0,0,16.1,24Z" fill="#222221"/>
    <path d="M31.1,20,33,18.1A1.5,1.5,0,0,0,30.9,16L29,17.9l-1.9-2a1.8,1.8,0,0,0-2.2,0,1.8,1.8,0,0,0,0,2.2l2,1.9L25,21.9A1.4,1.4,0,0,0,25,24a1.2,1.2,0,0,0,1,.5,1.6,1.6,0,0,0,1.1-.5L29,22.1l1.9,2a1.7,1.7,0,0,0,2.2,0,1.8,1.8,0,0,0,0-2.2Z" fill="#222221"/>
    <path d="M32,27.5H16a1.5,1.5,0,0,0,0,3H26.5V32a2.5,2.5,0,0,0,5,0V30.5H32a1.5,1.5,0,0,0,0-3Z" fill="#222221"/>
    <path d="M24,6A18,18,0,1,0,42,24,18.1,18.1,0,0,0,24,6Zm0,33A15,15,0,1,1,39,24,15,15,0,0,1,24,39Z" fill="#222221"/>
  </g>
</svg>
