<svg id="outline" xmlns="http://www.w3.org/2000/svg" viewBox="0 0 48 48">
  <g>
    <rect x="13" y="12" width="21" height="13" rx="2" ry="2" fill="#222221"/>
    <g opacity="0.5">
      <path d="M32,9.1H20.4V8.7a1.1,1.1,0,0,0-.5-.9l-1.3-.6L17.9,7H14.1A1.1,1.1,0,0,0,13,8.1v5.3H34V11.1A2,2,0,0,0,32,9.1Z" fill="#222221"/>
    </g>
  </g>
  <rect x="27" y="33" width="14" height="8" rx="1" ry="1" fill="#222221"/>
  <g opacity="0.5">
    <path d="M39.8,31H32v-.9a.8.8,0,0,0-.4-.6l-.8-.4H28a1,1,0,0,0-1,1v3.8H40.8V32A.9.9,0,0,0,39.8,31Z" fill="#222221"/>
  </g>
  <rect x="7" y="33" width="14" height="8" rx="1" ry="1" fill="#222221"/>
  <g opacity="0.5">
    <path d="M19.8,31H12v-.9a.8.8,0,0,0-.4-.6l-.8-.4H8a1,1,0,0,0-1,1v3.8H20.8V32A.9.9,0,0,0,19.8,31Z" fill="#222221"/>
  </g>
  <polyline points="19.5 29.5 23 26 26.5 29.5" fill="none" stroke="#222221" stroke-miterlimit="10" stroke-width="2"/>
</svg>
