<svg xmlns="http://www.w3.org/2000/svg" viewBox="0 0 48 48">
  <title>folder-open</title>
  <g id="layout">
    <g opacity="0.5">
      <rect x="8" y="11" width="32" height="25" rx="3.8" ry="3.8" fill="#222221"/>
      <path d="M22.1,15.8H8V9a2,2,0,0,1,2-2h7.3a2.8,2.8,0,0,1,1.3.3l2.4,1.2a2,2,0,0,1,1.1,1.8Z" fill="#222221"/>
    </g>
    <path d="M5.9,20H42.1L44,21.9,40.4,38a3.8,3.8,0,0,1-1,1.9h0A3.8,3.8,0,0,1,36.7,41H13.2a3.8,3.8,0,0,1-2.7-1.1h-.1a3.8,3.8,0,0,1-.9-1.5L4,21.9Z" fill="#222221" fill-rule="evenodd"/>
  </g>
</svg>
