<svg xmlns="http://www.w3.org/2000/svg" viewBox="0 0 48 48">
  <path d="M24,6.4a18,18,0,0,0-5.7,35.1c.9.2,1.2-.4,1.2-.8V37.6c-5,1.1-6-2.4-6-2.4a5.5,5.5,0,0,0-2-2.7c-1.7-1.1.1-1,.1-1a3.6,3.6,0,0,1,2.7,1.8c1.6,2.8,4.2,2,5.3,1.5a3.4,3.4,0,0,1,1.1-2.4c-4-.5-8.2-2-8.2-8.9a6.6,6.6,0,0,1,1.9-4.8,6.8,6.8,0,0,1,.1-4.8s1.6-.5,5,1.9a22.2,22.2,0,0,1,4.5-.7,22.2,22.2,0,0,1,4.5.7c3.4-2.4,5-1.9,5-1.9a6.8,6.8,0,0,1,.1,4.8,6.6,6.6,0,0,1,1.9,4.8c0,6.9-4.2,8.4-8.2,8.9a4.3,4.3,0,0,1,1.2,3.3v5c0,.4.3,1,1.2.8A18,18,0,0,0,24,6.4Z" fill="#181616" fill-rule="evenodd"/>
</svg>
