<svg id="logoB" class="preload-icon" version="1.1" xmlns="http://www.w3.org/2000/svg" xmlns:xlink="http://www.w3.org/1999/xlink" xmlns:a="http://ns.adobe.com/AdobeSVGViewerExtensions/3.0/" x="0px" y="0px" width="42.2px" height="34.5px" viewBox="0 0 42.2 34.5" style="display: -webkit-inline-box;" xml:space="preserve">
                <style type="text/css">
                    .st0 {
                        fill: url(#SVGID_1_);
                    }

                    .st1 {
                        fill: url(#SVGID_2_);
                    }

                </style>
                <defs>
                </defs>
                <linearGradient id="SVGID_1_" gradientUnits="userSpaceOnUse" x1="9.7479" y1="33.0695" x2="33.2073" y2="14.4975">
                    <stop offset="1.676366e-03" style="stop-color:#009DE0"></stop>
                    <stop offset="1" style="stop-color:#F7EA3A"></stop>
                </linearGradient>
                <g clip-path="url(#clip-path)">
                    <path class="mason-icon" d="M20.3,4.3c0.5-0.7,1-1.4,1.6-2.1c1.7-1.7,5.4-2.9,7.8-1.8c1.9,0.9,2.5,2.9,2.9,4.8c0.6,2.8,0,5.2,0,7.9
    c0,2.2,0.5,4.4,2.5,5.4c1.9,1,4.3,1.3,5.8,2.9c2.5,2.6,1,6.4-1,8.8c-2.6,3-7.4,5.6-11.3,3.6c-2.6-1.4-4.4-3.3-7.5-3.9
    c-4-0.7-6.8,1-10.2,2.8c-2,1-4.2,2-6.5,1.5c-2.2-0.6-3.7-2.4-4.3-4.6c-0.7-3,0.7-7.3,3.6-8.7c2.1-1,4.2-2,6.2-3.1
    c1.7-1,3.8-2,5.2-3.4c1.3-1.2,2.1-3.7,2.8-5.3C18.6,7.4,19.3,5.8,20.3,4.3z"></path>
                </g>
                <clipPath id="clip-path">
                    <path class="circle-mask" fill="#fff" d="M0 0h48v49H0z"></path>
                </clipPath>
            </svg>