<svg class="preload-icon" xmlns="http://www.w3.org/2000/svg" width="42.2" height="34.5" viewBox="0 0 42.2 34.5" display="-webkit-inline-box"><style type="text/css">.st0 { fill: url(#SVGID_1_); } .st1 { fill: url(#SVGID_2_); }</style><linearGradient id="SVGID_1_" gradientUnits="userSpaceOnUse" x1="9.748" y1="33.069" x2="33.207" y2="14.498"><stop offset=".002" stop-color="#009DE0"/><stop offset="1" stop-color="#F7EA3A"/></linearGradient><path class="mason-icon" d="M20.3 4.3c.5-.7 1-1.4 1.6-2.1 1.7-1.7 5.4-2.9 7.8-1.8 1.9.9 2.5 2.9 2.9 4.8.6 2.8 0 5.2 0 7.9 0 2.2.5 4.4 2.5 5.4 1.9 1 4.3 1.3 5.8 2.9 2.5 2.6 1 6.4-1 8.8-2.6 3-7.4 5.6-11.3 3.6-2.6-1.4-4.4-3.3-7.5-3.9-4-.7-6.8 1-10.2 2.8-2 1-4.2 2-6.5 1.5-2.2-.6-3.7-2.4-4.3-4.6-.7-3 .7-7.3 3.6-8.7 2.1-1 4.2-2 6.2-3.1 1.7-1 3.8-2 5.2-3.4 1.3-1.2 2.1-3.7 2.8-5.3.7-1.7 1.4-3.3 2.4-4.8z" clip-path="url(#clip-path)"/><clipPath id="clip-path"><path class="circle-mask" fill="#fff" d="M0 0h48v49h-48z"/></clipPath></svg>