<svg xmlns="http://www.w3.org/2000/svg" width="48" height="48" viewBox="0 0 48 48">
  <title>Presentation-view-icon-16x</title>
  <g id="layout">
    <path d="M39.84,8.08a2.08,2.08,0,0,1,2.08,2.08V37.84a2.08,2.08,0,0,1-2.08,2.08H8.08A2.08,2.08,0,0,1,6,37.84V10.16A2.08,2.08,0,0,1,8.08,8.08H39.84m0-2.08H8.08a4.16,4.16,0,0,0-4.16,4.16V37.84A4.16,4.16,0,0,0,8.08,42H39.84A4.16,4.16,0,0,0,44,37.84V10.16A4.16,4.16,0,0,0,39.84,6Z" fill="#222221"/>
    <path d="M33.46,24.69,17.38,33l-1.92-1.19V15.19L17.38,14l16.08,8.31Z" fill="#222221" fill-rule="evenodd"/>
  </g>
</svg>
