<svg xmlns="http://www.w3.org/2000/svg" viewBox="0 0 24 24"><title>search-extended</title><path d="M15.2,14.9a4.7,4.7,0,0,0,.6-1.5,7.7,7.7,0,0,1-2.5-1,4.5,4.5,0,0,1-1,2.1l-.3.2a4,4,0,0,1-2.9,1.2,4.8,4.8,0,0,1-3.2-1.3,4.6,4.6,0,0,1-1.3-3.1A4.8,4.8,0,0,1,5.9,8.3,4.7,4.7,0,0,1,9.1,7.1l1.4.2V7a8.5,8.5,0,0,1,.4-2.3,5.7,5.7,0,0,0-1.8-.3,6.7,6.7,0,0,0-5,2.1,7,7,0,0,0,5,12,7.2,7.2,0,0,0,3.4-.9L17,22.2a1.1,1.1,0,0,0,1.3,0l1.4-1.5a.7.7,0,0,0,0-1.2Z" fill="#222221"/><path d="M21.5,6.1h-.9l-.4-.4V5.1l.7-.7V3.8l-.7-.7h-.6l-.7.7h-.6l-.4-.4V2.5L17.5,2h-1l-.4.5v.9l-.4.4h-.6l-.7-.7h-.6l-.7.7v.6l.7.7v.6l-.4.4h-.9l-.5.4v1l.5.4h.9l.4.4v.6l-.7.7v.6l.7.7h.6l.7-.7h.6l.4.4v.9l.4.5h1l.4-.5v-.9l.4-.4h.6l.7.7h.6l.7-.7V9.6l-.7-.7V8.3l.4-.4h.9l.5-.4v-1ZM17,8.9A2,2,0,0,1,15.1,7a1.9,1.9,0,1,1,3.8,0A2,2,0,0,1,17,8.9Z" fill="#222221"/></svg>