<svg xmlns="http://www.w3.org/2000/svg" viewBox="0 0 48 48">
  <title>select--fill</title>
  <g id="layout">
    <g opacity="0.25">
      <rect x="6.5" y="6.5" width="35" height="35" rx="4.5" ry="4.5" fill="#222221"/>
      <path d="M37,8a3,3,0,0,1,3,3V37a3,3,0,0,1-3,3H11a3,3,0,0,1-3-3V11a3,3,0,0,1,3-3H37m0-3H11a6,6,0,0,0-6,6V37a6,6,0,0,0,6,6H37a6,6,0,0,0,6-6V11a6,6,0,0,0-6-6Z" fill="#222221"/>
    </g>
    <g>
      <line x1="16" y1="24" x2="22" y2="31" fill="none" stroke="#222221" stroke-linecap="round" stroke-linejoin="round" stroke-width="4"/>
      <line x1="32" y1="17" x2="22" y2="31" fill="none" stroke="#222221" stroke-linecap="round" stroke-linejoin="round" stroke-width="4"/>
    </g>
  </g>
</svg>
