<svg xmlns="http://www.w3.org/2000/svg" width="48" height="48" viewBox="0 0 48 48">
  <title>Settings-icon-16x</title>
  <g id="layout">
    <g>
      <polyline points="12.91 21.17 11.5 19.76 11.5 16.93 9.38 14.81 9.38 11.98 12.21 9.15 15.04 9.15 17.16 11.27 19.99 11.27 21.4 12.69" fill="#222221"/>
      <polyline points="14.23 30 12.23 30 10.23 28 7.23 28 5.23 26 5.23 22 7.23 20 10.23 20 12.23 18 14.23 18" fill="#222221"/>
      <polyline points="21.4 35.31 19.99 36.73 17.16 36.73 15.04 38.85 12.21 38.85 9.38 36.02 9.38 33.19 11.5 31.07 11.5 28.24 12.91 26.83" fill="#222221"/>
      <polyline points="30.23 34 30.23 36 28.23 38 28.23 41 26.23 43 22.23 43 20.23 41 20.23 38 18.23 36 18.23 34" fill="#222221"/>
      <polyline points="35.54 26.83 36.96 28.24 36.96 31.07 39.08 33.19 39.08 36.02 36.25 38.85 33.42 38.85 31.3 36.73 28.47 36.73 27.06 35.31" fill="#222221"/>
      <polyline points="34.23 18 36.23 18 38.23 20 41.23 20 43.23 22 43.23 26 41.23 28 38.23 28 36.23 30 34.23 30" fill="#222221"/>
      <polyline points="27.06 12.69 28.47 11.27 31.3 11.27 33.42 9.15 36.25 9.15 39.08 11.98 39.08 14.81 36.96 16.93 36.96 19.76 35.54 21.17" fill="#222221"/>
      <polyline points="18.23 14 18.23 12 20.23 10 20.23 7 22.23 5 26.23 5 28.23 7 28.23 10 30.23 12 30.23 14" fill="#222221"/>
    </g>
    <path d="M36.23,24a12,12,0,1,1-12-12A12,12,0,0,1,36.23,24Zm-12-9a9,9,0,1,0,9,9A9,9,0,0,0,24.23,15Z" fill="#222221"/>
  </g>
</svg>
