<svg xmlns="http://www.w3.org/2000/svg" viewBox="0 0 48 48">
  <g id="layout">
    <path d="M43.8,25.4,27.4,9a3.7,3.7,0,0,0-2.6-1.1H22.1L37.5,23.3a5.7,5.7,0,0,1,0,8l-8.5,8.5.2.2a3.7,3.7,0,0,0,5.2,0l9.4-9.4A3.7,3.7,0,0,0,43.8,25.4Z" fill="#222221"/>
    <path d="M36.1,24.8,19.6,8.3a3.7,3.7,0,0,0-2.6-1.1H7.6A3.7,3.7,0,0,0,4,10.9v9.4a3.7,3.7,0,0,0,1.1,2.6L21.5,39.3a3.7,3.7,0,0,0,5.2,0l9.4-9.4A3.7,3.7,0,0,0,36.1,24.8Zm-23-7.5a3.2,3.2,0,1,1,0-4.5A3.2,3.2,0,0,1,13.1,17.2Z" fill="#222221"/>
  </g>
</svg>
