<svg xmlns="http://www.w3.org/2000/svg" viewBox="0 0 24 24"><path d="M21.9 11.7L13.2 3a1.7 1.7 0 0 0-1.3-.5h-4a3 3 0 0 0-3 3v3.9a1.7 1.7 0 0 0 .5 1.4l8.7 8.7a1.9 1.9 0 0 0 2.8 0l5-5.1a1.8 1.8 0 0 0 0-2.7z" fill="#222221"/><path d="M19.4 12.9l-8.5-8.5a2.1 2.1 0 0 0-1.3-.5H5.8a2.9 2.9 0 0 0-2.9 2.9v3.8a2 2 0 0 0 .4 1.3l8.5 8.5a2 2 0 0 0 2.7 0l4.8-4.8a2 2 0 0 0 .1-2.7z" fill="#fff"/><path d="M17.7 13.5L9.6 5.4a1.7 1.7 0 0 0-1.3-.5H4.7a2.9 2.9 0 0 0-2.9 2.9v3.6a1.7 1.7 0 0 0 .5 1.2l8.1 8.2a1.8 1.8 0 0 0 2.6-.1l4.7-4.7a1.8 1.8 0 0 0 0-2.5zM7.6 10.7a2.2 2.2 0 0 1-3 0 2.2 2.2 0 0 1 0-3 2 2 0 0 1 3 0 2.2 2.2 0 0 1 0 3z" fill="#222221"/><circle cx="16.5" cy="7.5" r="5.5" fill="#fff"/><path d="M16.5 11.5a.9.9 0 0 1-1-1v-6a1 1 0 0 1 2 0v6a.9.9 0 0 1-1 1zm3-3h-6a.9.9 0 0 1-1-1 .9.9 0 0 1 1-1h6a.9.9 0 0 1 1 1 .9.9 0 0 1-1 1z" fill="#222221"/></svg>