<svg xmlns="http://www.w3.org/2000/svg" viewBox="0 0 48 48">
  <title>tag-add</title>
  <g id="layout">
    <g>
      <path d="M40.7,25l-2-2A10.5,10.5,0,1,1,23.9,8.3l-1-1a3.9,3.9,0,0,0-2.8-1.1H10.1a3.9,3.9,0,0,0-3.9,3.9V20.2A3.9,3.9,0,0,0,7.3,23L25,40.7a3.9,3.9,0,0,0,5.5,0L40.7,30.6A3.9,3.9,0,0,0,40.7,25ZM16,17a3.4,3.4,0,1,1,0-4.8A3.4,3.4,0,0,1,16,17Z" fill="#222221"/>
      <g>
        <path d="M30.5,24.5A1.5,1.5,0,0,1,29,23V10a1.5,1.5,0,0,1,3,0V23A1.5,1.5,0,0,1,30.5,24.5Z" fill="#222221"/>
        <path d="M37,18H24a1.5,1.5,0,0,1,0-3H37a1.5,1.5,0,0,1,0,3Z" fill="#222221"/>
      </g>
    </g>
  </g>
</svg>
