<svg xmlns="http://www.w3.org/2000/svg" viewBox="0 0 48 48">
  <g id="layout">
    <path d="M20.2,8.2a1.9,1.9,0,0,1,1.4.6L39.2,26.4a1.9,1.9,0,0,1,0,2.7L29.1,39.2a1.9,1.9,0,0,1-2.7,0L8.8,21.6a1.9,1.9,0,0,1-.6-1.4V10.1a1.9,1.9,0,0,1,1.9-1.9H20.2m0-2H10.1a3.9,3.9,0,0,0-3.9,3.9V20.2A3.9,3.9,0,0,0,7.3,23L25,40.7a3.9,3.9,0,0,0,5.5,0L40.7,30.6a3.9,3.9,0,0,0,0-5.5L23,7.3a3.9,3.9,0,0,0-2.8-1.1Z" fill="#222221"/>
    <circle cx="14.5" cy="14.5" r="3.4" transform="translate(-6 14.5) rotate(-45)" fill="none" stroke="#222221" stroke-miterlimit="10" stroke-width="2"/>
  </g>
</svg>
