<svg xmlns="http://www.w3.org/2000/svg" viewBox="0 0 24 24"><path d="M18.6 12.6a5.2 5.2 0 0 1-2.1.4A5.5 5.5 0 0 1 11 7.5a5.2 5.2 0 0 1 .4-2.1l-.9-.9A1.7 1.7 0 0 0 9.1 4h-4A3.1 3.1 0 0 0 2 7.1v4a1.7 1.7 0 0 0 .5 1.4l8.9 8.9a1.9 1.9 0 0 0 2.8 0l5.2-5.2a1.9 1.9 0 0 0 0-2.8zM7.9 9.9a1.9 1.9 0 0 1-2.8 0 1.9 1.9 0 0 1 0-2.8 1.9 1.9 0 0 1 2.8 0 1.9 1.9 0 0 1 0 2.8zm11.6-3.4h-2v-2a1 1 0 0 0-2 0v2h-2a.9.9 0 0 0-1 1 .9.9 0 0 0 1 1h2v2a1 1 0 0 0 2 0v-2h2a.9.9 0 0 0 1-1 .9.9 0 0 0-1-1z" fill="#222221"/></svg>