<svg xmlns="http://www.w3.org/2000/svg" viewBox="0 0 48 48">
  <g id="layout">
    <path d="M41.8,23.4,25.4,7a3.7,3.7,0,0,0-2.6-1.1h-.2l5.3,5.3a5.6,5.6,0,0,1,1.7,4V38.4a5.7,5.7,0,0,1,0,.6,3.6,3.6,0,0,0,2.9-1l9.4-9.4A3.7,3.7,0,0,0,41.8,23.4Z" fill="#222221"/>
    <path d="M26.5,12.6,19.8,5.9a3.7,3.7,0,0,0-5.2,0L8,12.6a3.7,3.7,0,0,0-1.1,2.6V38.4a3.7,3.7,0,0,0,3.7,3.7H23.9a3.7,3.7,0,0,0,3.7-3.7V15.2A3.7,3.7,0,0,0,26.5,12.6Zm-9.9,4.3a3.2,3.2,0,1,1,3.2-3.2A3.2,3.2,0,0,1,16.6,16.9Z" fill="#222221"/>
  </g>
</svg>
