<svg xmlns="http://www.w3.org/2000/svg" viewBox="0 0 48 48">
  <title>warning</title>
  <g id="layout">
    <path d="M24,11a2,2,0,0,1,1.7,1L38.7,33.5a2.4,2.4,0,0,1,0,2.4A2,2,0,0,1,36.9,37H11.1a2,2,0,0,1-1.8-1.1,2.4,2.4,0,0,1,0-2.4L22.3,12A2,2,0,0,1,24,11m0-2a4,4,0,0,0-3.4,1.9L7.6,32.5A4.3,4.3,0,0,0,11.1,39H36.9a4.3,4.3,0,0,0,3.5-6.5L27.4,10.9A4,4,0,0,0,24,9Z" fill="#222221"/>
    <g>
      <rect x="22" y="31" width="4" height="4" fill="#222221"/>
      <rect x="22" y="17" width="4" height="12" fill="#222221"/>
    </g>
  </g>
</svg>
