<svg xmlns="http://www.w3.org/2000/svg" viewBox="0 0 24 24">
  <title>zoom-in</title>
  <g>
    <path d="M22.1,19.1,17,13.9a8.2,8.2,0,0,0-1.3-9.6A8.5,8.5,0,0,0,10,2,8.5,8.5,0,0,0,4.3,4.3a8.1,8.1,0,0,0,0,11.4A8.5,8.5,0,0,0,10,18a7.6,7.6,0,0,0,3.9-1l5.2,5.1a1,1,0,0,0,1.4,0l1.6-1.6A1,1,0,0,0,22.1,19.1Zm-8.4-5.7-.3.3A5.1,5.1,0,0,1,10,15a4.7,4.7,0,0,1-3.5-1.5A4.7,4.7,0,0,1,5,10,4.7,4.7,0,0,1,6.5,6.5,4.7,4.7,0,0,1,10,5a4.7,4.7,0,0,1,3.5,1.5A4.7,4.7,0,0,1,15,10,5.1,5.1,0,0,1,13.7,13.4Z" fill="#222221"/>
    <path d="M11,9V7a.9.9,0,0,0-1-1A.9.9,0,0,0,9,7V9H7a.9.9,0,0,0-1,1,.9.9,0,0,0,1,1H9v2a.9.9,0,0,0,1,1,.9.9,0,0,0,1-1V11h2a.9.9,0,0,0,1-1,.9.9,0,0,0-1-1Z" fill="#222221"/>
  </g>
</svg>
