<svg xmlns="http://www.w3.org/2000/svg" xmlns:xlink="http://www.w3.org/1999/xlink" width="115.71" height="26.97" viewBox="0 0 115.71 26.97">
  <defs>
    <style>
      .a {
        fill: #fff;
      }

      .b {
        fill: url(#a);
      }
    </style>
    <linearGradient id="a" data-name="New Gradient Swatch 3" x1="8.49765" y1="24.04411" x2="24.13723" y2="11.66277" gradientUnits="userSpaceOnUse">
      <stop offset="0.00168" stop-color="#009de0"/>
      <stop offset="1" stop-color="#f7ea3a"/>
    </linearGradient>
  </defs>
  <title>allusion-logo-hor-fc-white</title>
  <g>
    <g>
      <path class="a" d="M40.73731,6.57492h3.45215l5.16406,14.59766H46.04591l-.96289-3.001H39.707l-.98926,3.001H35.52735Zm-.2002,9.08105H44.2754L42.43165,9.91281Z"/>
      <path class="a" d="M53.86524,21.17257H51.043V6.57492h2.82227Z"/>
      <path class="a" d="M59.5,21.17257H56.67774V6.57492H59.5Z"/>
      <path class="a" d="M65.06544,10.37765v6.50684a3.42235,3.42235,0,0,0,.2168,1.38672A1.49868,1.49868,0,0,0,66.79,19.0925a1.96951,1.96951,0,0,0,1.9707-1.168,4.25792,4.25792,0,0,0,.27539-1.67383v-5.873h2.8623V21.17257H69.15528V19.64718c-.02637.0332-.0918.13281-.19727.29785a2.009,2.009,0,0,1-.375.43555,3.92165,3.92165,0,0,1-1.2793.81152,4.33959,4.33959,0,0,1-1.44727.21777,3.22264,3.22264,0,0,1-3.21875-1.72266,6.60965,6.60965,0,0,1-.46387-2.80273V10.37765Z"/>
      <path class="a" d="M76.83009,17.72629a1.88177,1.88177,0,0,0,.3877,1.06934,2.62925,2.62925,0,0,0,1.9502.56445,2.98736,2.98736,0,0,0,1.3291-.24707.82979.82979,0,0,0,.0957-1.46582,16.17029,16.17029,0,0,0-2.95312-.85156,6.11939,6.11939,0,0,1-2.5918-1.13965,2.46674,2.46674,0,0,1-.75293-1.94043,3.36411,3.36411,0,0,1,1.17578-2.57031A4.733,4.733,0,0,1,78.78028,10.071a6.081,6.081,0,0,1,3.2998.80664,3.458,3.458,0,0,1,1.46484,2.78809H80.72169a1.65389,1.65389,0,0,0-.30762-.86133,1.94059,1.94059,0,0,0-1.58887-.57422,2.28656,2.28656,0,0,0-1.31543.28711.82587.82587,0,0,0-.39258.67285.73488.73488,0,0,0,.417.70313,17.987,17.987,0,0,0,2.94727.78223,5.4102,5.4102,0,0,1,2.52832,1.19922,2.71868,2.71868,0,0,1,.832,2.0293,3.27642,3.27642,0,0,1-1.19629,2.62012,5.62512,5.62512,0,0,1-3.69629,1.01465,5.57473,5.57473,0,0,1-3.76562-1.07422,3.49276,3.49276,0,0,1-1.21582-2.73828Z"/>
      <path class="a" d="M88.82325,9.09054h-2.8623V6.48605h2.8623Zm-2.8623,1.28711h2.8623V21.17257h-2.8623Z"/>
      <path class="a" d="M100.5586,19.85226a5.94774,5.94774,0,0,1-8.29883,0,6.24982,6.24982,0,0,1-1.36719-4.0625,6.29123,6.29123,0,0,1,1.36719-4.04687,5.88472,5.88472,0,0,1,8.29883,0,6.29046,6.29046,0,0,1,1.36621,4.04688A6.24911,6.24911,0,0,1,100.5586,19.85226Zm-2.25781-1.56055a4.08678,4.08678,0,0,0,.66309-2.502,4.06387,4.06387,0,0,0-.66309-2.49609,2.50681,2.50681,0,0,0-3.80762,0,4.03755,4.03755,0,0,0-.66895,2.49609,4.06027,4.06027,0,0,0,.66895,2.502,2.49779,2.49779,0,0,0,3.80762,0Z"/>
      <path class="a" d="M112.6504,10.99679a3.57113,3.57113,0,0,1,1.06055,2.90625v7.26953h-2.8916V14.60715a3.02,3.02,0,0,0-.22656-1.30762,1.58849,1.58849,0,0,0-1.57324-.832,1.95039,1.95039,0,0,0-1.95605,1.21777,4.2142,4.2142,0,0,0-.27539,1.64453v5.84277h-2.82227V10.39816h2.7334v1.57422a4.77262,4.77262,0,0,1,1.02539-1.19824,3.55393,3.55393,0,0,1,2.19922-.65332A4.13876,4.13876,0,0,1,112.6504,10.99679Z"/>
    </g>
    <path class="b" d="M15.50885,4.85612A8.619,8.619,0,0,1,16.60273,3.481a5.30132,5.30132,0,0,1,5.199-1.20752c1.294.58218,1.65969,1.92953,1.94642,3.18322.42368,1.85254-.011,3.43482.0055,5.25109.01352,1.475.30276,2.90431,1.66886,3.609,1.2562.648,2.84631.87113,3.85179,1.93244,1.64318,1.73441.67879,4.25333-.66882,5.84236-1.724,2.03288-4.94922,3.76385-7.54083,2.38654-1.72-.91411-2.95525-2.227-4.96864-2.59272-2.63979-.47956-4.55687.67958-6.806,1.86122a6.21327,6.21327,0,0,1-4.33448.97437,4.033,4.033,0,0,1-2.837-3.07132c-.46918-1.98772.46528-4.86038,2.41015-5.769,1.38807-.64847,2.77391-1.30534,4.11637-2.04489a16.20973,16.20973,0,0,0,3.49505-2.23837,10.45155,10.45155,0,0,0,1.83507-3.56374A16.3703,16.3703,0,0,1,15.50885,4.85612Z"/>
  </g>
</svg>
