<svg xmlns="http://www.w3.org/2000/svg" xmlns:xlink="http://www.w3.org/1999/xlink" width="32" height="32" viewBox="0 0 32 32">
  <defs>
    <style>
      .Allusion-Gradient {
        fill: url(#a);
      }
    </style>
    <linearGradient id="a" data-name="New Gradient Swatch 3" x1="10.02164" y1="19.52323" x2="22.36972" y2="9.74766" gradientUnits="userSpaceOnUse">
      <stop offset="0.00168" stop-color="#009de0"/>
      <stop offset="1" stop-color="#f7ea3a"/>
    </linearGradient>
  </defs>
  <title>allusion-logo-ver-fc-black</title>
  <g>
    <g>
      <path d="M2.9993,24.14142H4.32371l1.98159,5.6011H5.03593L4.66642,28.5909H2.60394l-.38,1.15162H1Zm-.07706,3.48453h1.4345L3.6493,25.42179Z"/>
      <path d="M8.03607,29.74251H6.95338v-5.6011H8.03607Z"/>
      <path d="M10.19859,29.74251H9.1159v-5.6011h1.08269Z"/>
      <path d="M12.3343,25.60032v2.49661a1.32144,1.32144,0,0,0,.08281.53225.57612.57612,0,0,0,.57868.31543.7554.7554,0,0,0,.75626-.44849,1.63536,1.63536,0,0,0,.10578-.64234V25.60032h1.09849v4.14219H13.90378v-.58538c-.01053.01292-.03542.05074-.0761.1144a.7532.7532,0,0,1-.14407.167,1.50018,1.50018,0,0,1-.49061.3116,1.67283,1.67283,0,0,1-.55523.08376,1.23742,1.23742,0,0,1-1.23538-.66149,2.53693,2.53693,0,0,1-.17806-1.07551V25.60032Z"/>
      <path d="M16.8484,28.42a.72219.72219,0,0,0,.14934.41068,1.01037,1.01037,0,0,0,.74812.21635,1.14722,1.14722,0,0,0,.50976-.09477.31825.31825,0,0,0,.03686-.56241,6.183,6.183,0,0,0-1.133-.32691,2.36013,2.36013,0,0,1-.9951-.437.948.948,0,0,1-.28862-.74477,1.28975,1.28975,0,0,1,.45136-.986,1.81279,1.81279,0,0,1,1.26984-.41259,2.337,2.337,0,0,1,1.26649.30968,1.32769,1.32769,0,0,1,.56145,1.06977H18.34225a.64489.64489,0,0,0-.11823-.33074.74466.74466,0,0,0-.60979-.22018.8802.8802,0,0,0-.505.11009.31819.31819,0,0,0-.15029.25847.28312.28312,0,0,0,.15987.27,7.01088,7.01088,0,0,0,1.131.30011,2.07536,2.07536,0,0,1,.97021.46,1.04408,1.04408,0,0,1,.31878.77875,1.25755,1.25755,0,0,1-.45854,1.00515,2.16,2.16,0,0,1-1.41822.38962,2.13579,2.13579,0,0,1-1.445-.41259A1.33965,1.33965,0,0,1,15.75039,28.42Z"/>
      <path d="M21.45056,25.10636h-1.098V24.107h1.098Zm-1.098.494h1.098v4.14219h-1.098Z"/>
      <path d="M25.95365,29.23563a1.92824,1.92824,0,0,1-1.59245.64761,1.92662,1.92662,0,0,1-1.592-.64761,2.56872,2.56872,0,0,1,0-3.11119,1.91378,1.91378,0,0,1,1.592-.65718,1.91538,1.91538,0,0,1,1.59245.65718,2.57058,2.57058,0,0,1,0,3.11119Zm-.86635-.59831a1.9371,1.9371,0,0,0,0-1.91841.9633.9633,0,0,0-1.4613,0,1.92141,1.92141,0,0,0,0,1.91841.95974.95974,0,0,0,1.4613,0Z"/>
      <path d="M30.59315,25.83773A1.37129,1.37129,0,0,1,31,26.95345v2.78906H29.8905V27.22293a1.16446,1.16446,0,0,0-.08663-.50162.61043.61043,0,0,0-.60357-.31926.74879.74879,0,0,0-.751.46764,1.6163,1.6163,0,0,0-.10578.63085v2.242H27.26083V25.608h1.04871v.604a1.84429,1.84429,0,0,1,.39345-.4595,1.36227,1.36227,0,0,1,.84385-.25081A1.58883,1.58883,0,0,1,30.59315,25.83773Z"/>
    </g>
    <path class="Allusion-Gradient" d="M15.55726,4.37353a6.80507,6.80507,0,0,1,.86367-1.08569,4.1856,4.1856,0,0,1,4.10485-.95338,3.20755,3.20755,0,0,1,1.53678,2.51328c.33451,1.46265-.00872,2.71193.00434,4.14595a2.911,2.911,0,0,0,1.31763,2.84947c.99182.51164,2.24727.6878,3.04114,1.52574,1.29736,1.36939.53593,3.35818-.52806,4.61278-1.36119,1.605-3.90761,2.97171-5.95379,1.88427-1.358-.72173-2.33329-1.75827-3.92294-2.04706-2.08422-.37863-3.59783.53656-5.37361,1.46951a4.90563,4.90563,0,0,1-3.42225.76931A3.18424,3.18424,0,0,1,4.9851,17.63277c-.37044-1.56938.36736-3.83747,1.90291-4.55484,1.09594-.512,2.19011-1.03062,3.25-1.61452a12.79824,12.79824,0,0,0,2.75949-1.76729A8.25192,8.25192,0,0,0,14.3464,6.88241,12.925,12.925,0,0,1,15.55726,4.37353Z"/>
  </g>
</svg>
