<svg xmlns="http://www.w3.org/2000/svg" width="16" height="16" viewBox="0 0 16 16">
  <defs>
    <style>
      .a {
        fill: #fff;
      }
    </style>
  </defs>
  <title>allusion-logomark-ver-white</title>
  <path class="a" d="M7.7011,3.7712a4.59419,4.59419,0,0,1,.58307-.733,2.82575,2.82575,0,0,1,2.77124-.64364,2.16546,2.16546,0,0,1,1.0375,1.69675,12.07494,12.07494,0,0,1,.00293,2.799A1.96522,1.96522,0,0,0,12.98539,8.814a6.89579,6.89579,0,0,1,2.05311,1.03c.87586.92449.36181,2.26715-.3565,3.11414-.919,1.08358-2.63807,2.00624-4.01948,1.27209a9.03658,9.03658,0,0,0-2.64842-1.382c-1.40708-.25562-2.42894.36224-3.62779.99208a3.31185,3.31185,0,0,1-2.3104.51937,2.14972,2.14972,0,0,1-1.5122-1.6371,2.89143,2.89143,0,0,1,1.28468-3.075c.73988-.34565,1.47857-.69578,2.19414-1.09a8.64025,8.64025,0,0,0,1.863-1.19312A5.571,5.571,0,0,0,6.88363,5.465,8.72583,8.72583,0,0,1,7.7011,3.7712Z"/>
</svg>
