<svg xmlns="http://www.w3.org/2000/svg" xmlns:xlink="http://www.w3.org/1999/xlink" width="16" height="16" viewBox="0 0 16 16">
  <defs>
    <style>
      .a {
        fill: url(#a);
      }
    </style>
    <linearGradient id="a" data-name="New Gradient Swatch 3" x1="4.23301" y1="13.25308" x2="12.01359" y2="7.09346" gradientUnits="userSpaceOnUse">
      <stop offset="0.00168" stop-color="#009de0"/>
      <stop offset="1" stop-color="#f7ea3a"/>
    </linearGradient>
  </defs>
  <title>allusion-logomark-ver-fc</title>
  <path class="a" d="M7.721,3.70719a4.28791,4.28791,0,0,1,.5442-.6841,2.63737,2.63737,0,0,1,2.58649-.60073A2.02109,2.02109,0,0,1,11.82,4.006a11.26994,11.26994,0,0,1,.00274,2.61238A1.83421,1.83421,0,0,0,12.653,8.41384a6.43607,6.43607,0,0,1,1.91624.96138c.81747.86286.33769,2.116-.33273,2.90653-.85769,1.01134-2.4622,1.87249-3.75151,1.18729a8.43414,8.43414,0,0,0-2.47186-1.28986,5,5,0,0,0-3.38594.92595,3.09106,3.09106,0,0,1-2.15638.48474,2.0064,2.0064,0,0,1-1.41138-1.528,2.69867,2.69867,0,0,1,1.199-2.87c.69056-.32261,1.38-.6494,2.04786-1.01732A8.06423,8.06423,0,0,0,6.04512,7.061,5.19957,5.19957,0,0,0,6.95806,5.288,8.14411,8.14411,0,0,1,7.721,3.70719Z"/>
</svg>
