<svg xmlns="http://www.w3.org/2000/svg" xmlns:xlink="http://www.w3.org/1999/xlink" viewBox="0 0 32 32"><defs><linearGradient id="a" x1="7.10881" y1="27.58063" x2="24.1363" y2="14.10053" gradientUnits="userSpaceOnUse"><stop offset="0" stop-color="#147df1"/><stop offset="0.50223" stop-color="#51b4cf"/><stop offset="0.95" stop-color="#7af2a6"/></linearGradient></defs><path d="M15.44206,7.41438a8.57542,8.57542,0,0,1,1.0884-1.3682,5.27473,5.27473,0,0,1,5.173-1.20146C22.991,5.424,23.3548,6.76457,23.64009,8.012c.42156,1.84325-.011,3.4176.00547,5.22476.01345,1.46765.30124,2.88976,1.6605,3.59094,1.2499.64477,2.832.86676,3.83247,1.92275,1.63495,1.72571.67539,4.232-.66547,5.81306-1.71538,2.02269-4.9244,3.745-7.503,2.37457-1.71142-.90953-2.94044-2.21579-4.94372-2.57972-2.62656-.47715-4.534.67618-6.77188,1.85189a6.18213,6.18213,0,0,1-4.31275.96949A4.01282,4.01282,0,0,1,2.11892,24.1238c-.46682-1.97775.46295-4.836,2.39807-5.74006,1.38111-.64522,2.76-1.29879,4.09572-2.03463A16.12781,16.12781,0,0,0,12.09024,14.122a10.39894,10.39894,0,0,0,1.82587-3.54587A16.28867,16.28867,0,0,1,15.44206,7.41438Z" fill="url(#a)"/><rect width="32" height="32" fill="none"/></svg>