<svg xmlns="http://www.w3.org/2000/svg" xmlns:xlink="http://www.w3.org/1999/xlink" viewBox="0 0 16 16"><defs><linearGradient id="a" x1="3.5544" y1="13.79031" x2="12.06815" y2="7.05026" gradientUnits="userSpaceOnUse"><stop offset="0" stop-color="#147df1"/><stop offset="0.50223" stop-color="#51b4cf"/><stop offset="0.95" stop-color="#7af2a6"/></linearGradient></defs><path d="M7.721,3.70719a4.28849,4.28849,0,0,1,.5442-.6841,2.63739,2.63739,0,0,1,2.58649-.60073A2.0211,2.0211,0,0,1,11.82,4.006a11.26976,11.26976,0,0,1,.00274,2.61238A1.83419,1.83419,0,0,0,12.653,8.41384a6.436,6.436,0,0,1,1.91624.96137c.81747.86286.33769,2.116-.33274,2.90654-.85769,1.01134-2.4622,1.87248-3.75151,1.18728a8.43441,8.43441,0,0,0-2.47186-1.28986,5,5,0,0,0-3.38594.926,3.0911,3.0911,0,0,1-2.15638.48474,2.00641,2.00641,0,0,1-1.41138-1.528,2.69869,2.69869,0,0,1,1.199-2.87c.69056-.32261,1.38-.6494,2.04787-1.01731A8.06452,8.06452,0,0,0,6.04512,7.061a5.19959,5.19959,0,0,0,.91294-1.77293A8.14393,8.14393,0,0,1,7.721,3.70719Z" fill="url(#a)"/></svg>