<svg xmlns="http://www.w3.org/2000/svg" xmlns:xlink="http://www.w3.org/1999/xlink" width="115.71" height="26.97" viewBox="0 0 115.71 26.97"><defs><linearGradient id="a" x1="7.1336" y1="25.12398" x2="24.2469" y2="11.57596" gradientUnits="userSpaceOnUse"><stop offset="0" stop-color="#147df1"/><stop offset="0.50223" stop-color="#51b4cf"/><stop offset="0.95" stop-color="#7af2a6"/></linearGradient></defs><path d="M40.73732,6.57492h3.45214l5.16407,14.59765H46.04591l-.96289-3.001H39.707l-.98925,3.001H35.52736Zm-.2002,9.08105H44.2754L42.43165,9.91281Z" fill="#fff"/><path d="M53.86525,21.17257H51.043V6.57492h2.82227Z" fill="#fff"/><path d="M59.5,21.17257H56.67775V6.57492H59.5Z" fill="#fff"/><path d="M65.06544,10.37765v6.50684a3.42232,3.42232,0,0,0,.2168,1.38671,1.49867,1.49867,0,0,0,1.50781.82129,1.96949,1.96949,0,0,0,1.9707-1.168,4.25776,4.25776,0,0,0,.27539-1.67382v-5.873h2.86231V21.17257H69.15529V19.64718c-.02637.0332-.0918.13281-.19727.29785a2.00915,2.00915,0,0,1-.375.43555,3.92155,3.92155,0,0,1-1.2793.81152,4.33948,4.33948,0,0,1-1.44726.21778,3.22263,3.22263,0,0,1-3.21875-1.72266,6.60965,6.60965,0,0,1-.46387-2.80273V10.37765Z" fill="#fff"/><path d="M76.83009,17.72628a1.88171,1.88171,0,0,0,.3877,1.06934,2.62925,2.62925,0,0,0,1.95019.56445,2.98731,2.98731,0,0,0,1.3291-.24707.82979.82979,0,0,0,.09571-1.46582,16.17018,16.17018,0,0,0-2.95313-.85156,6.11949,6.11949,0,0,1-2.5918-1.13965,2.46674,2.46674,0,0,1-.75293-1.94043,3.36412,3.36412,0,0,1,1.17578-2.57031A4.733,4.733,0,0,1,78.78029,10.071a6.081,6.081,0,0,1,3.2998.80664,3.458,3.458,0,0,1,1.46484,2.78809H80.72169a1.65382,1.65382,0,0,0-.30762-.86133,1.94058,1.94058,0,0,0-1.58886-.57422,2.28652,2.28652,0,0,0-1.31543.28711.82585.82585,0,0,0-.39258.67285.73487.73487,0,0,0,.417.70312,17.98593,17.98593,0,0,0,2.94727.78223,5.41022,5.41022,0,0,1,2.52832,1.19922,2.71871,2.71871,0,0,1,.832,2.0293,3.27641,3.27641,0,0,1-1.19629,2.62011,5.62512,5.62512,0,0,1-3.69629,1.01465,5.57472,5.57472,0,0,1-3.76562-1.07422,3.49273,3.49273,0,0,1-1.21582-2.73828Z" fill="#fff"/><path d="M88.82325,9.09054H85.961V6.48605h2.8623ZM85.961,10.37765h2.8623V21.17257H85.961Z" fill="#fff"/><path d="M100.55861,19.85226a5.94775,5.94775,0,0,1-8.29883,0,6.24979,6.24979,0,0,1-1.36719-4.0625,6.29122,6.29122,0,0,1,1.36719-4.04688,5.88474,5.88474,0,0,1,8.29883,0,6.2905,6.2905,0,0,1,1.36621,4.04688A6.24913,6.24913,0,0,1,100.55861,19.85226Zm-2.25782-1.56055a4.08673,4.08673,0,0,0,.66309-2.50195,4.06378,4.06378,0,0,0-.66309-2.49609,2.5068,2.5068,0,0,0-3.80761,0,4.03751,4.03751,0,0,0-.66895,2.49609,4.06026,4.06026,0,0,0,.66895,2.50195,2.49778,2.49778,0,0,0,3.80761,0Z" fill="#fff"/><path d="M112.6504,10.99679A3.57113,3.57113,0,0,1,113.711,13.903v7.26953h-2.8916V14.60714a3.02007,3.02007,0,0,0-.22656-1.30762,1.58851,1.58851,0,0,0-1.57325-.832,1.95039,1.95039,0,0,0-1.95605,1.21778,4.21406,4.21406,0,0,0-.27539,1.64453v5.84277h-2.82227V10.39816h2.7334v1.57422a4.77278,4.77278,0,0,1,1.02539-1.19825,3.554,3.554,0,0,1,2.19922-.65332A4.13878,4.13878,0,0,1,112.6504,10.99679Z" fill="#fff"/><path d="M15.50885,4.85612A8.61837,8.61837,0,0,1,16.60273,3.481a5.3013,5.3013,0,0,1,5.199-1.20751c1.294.58217,1.6597,1.92952,1.94642,3.18322.42368,1.85254-.01105,3.43482.0055,5.25109.01352,1.475.30276,2.90431,1.66886,3.609,1.25621.648,2.84631.87113,3.85179,1.93244,1.64318,1.73441.67879,4.25333-.66882,5.84236-1.724,2.03288-4.94922,3.76384-7.54083,2.38653-1.72005-.91411-2.95526-2.22695-4.96864-2.59272-2.63979-.47956-4.55687.67959-6.806,1.86122a6.21331,6.21331,0,0,1-4.33449.97438,4.033,4.033,0,0,1-2.837-3.07133c-.46917-1.98771.46528-4.86038,2.41015-5.769,1.38807-.64848,2.77391-1.30535,4.11637-2.04489a16.20935,16.20935,0,0,0,3.49505-2.23837,10.45146,10.45146,0,0,0,1.83507-3.56374A16.37031,16.37031,0,0,1,15.50885,4.85612Z" fill="url(#a)"/></svg>